<?xml version="1.0" encoding="UTF-8" standalone="no"?>
<!-- Created with Inkscape (http://www.inkscape.org/) -->

<svg
   xmlns:dc="http://purl.org/dc/elements/1.1/"
   xmlns:cc="http://creativecommons.org/ns#"
   xmlns:rdf="http://www.w3.org/1999/02/22-rdf-syntax-ns#"
   xmlns:svg="http://www.w3.org/2000/svg"
   xmlns="http://www.w3.org/2000/svg"
   xmlns:xlink="http://www.w3.org/1999/xlink"
   xmlns:sodipodi="http://sodipodi.sourceforge.net/DTD/sodipodi-0.dtd"
   xmlns:inkscape="http://www.inkscape.org/namespaces/inkscape"
   width="1000"
   height="1000"
   viewBox="0 0 1000 1000"
   id="svg2"
   version="1.1"
   inkscape:version="0.91 r13725"
   sodipodi:docname="icon.svg"
   inkscape:export-filename="/Users/thomas/git/summon/mobile-app/res/icon-android-512.png"
   inkscape:export-xdpi="46.080002"
   inkscape:export-ydpi="46.080002">
  <defs
     id="defs4">
    <linearGradient
       id="linearGradient4695"
       inkscape:collect="always">
      <stop
         id="stop4722"
         offset="0"
         style="stop-color:#bf3603;stop-opacity:1" />
      <stop
         id="stop4724"
         offset="1"
         style="stop-color:#bf3603;stop-opacity:0" />
    </linearGradient>
    <linearGradient
       inkscape:collect="always"
       id="linearGradient5079">
      <stop
         style="stop-color:#ffd90f;stop-opacity:1"
         offset="0"
         id="stop5081" />
      <stop
         style="stop-color:#ffa900;stop-opacity:1"
         offset="1"
         id="stop5083" />
    </linearGradient>
    <clipPath
       clipPathUnits="userSpaceOnUse"
       id="clipPath4172">
      <ellipse
         cy="498.07336"
         cx="396.39758"
         id="circle4174"
         style="opacity:1;fill:#ffcc00;fill-opacity:0.15727007;stroke:#ffffff;stroke-width:0;stroke-miterlimit:4;stroke-dasharray:none;stroke-opacity:0"
         rx="399.54361"
         ry="354.96811"
         transform="matrix(0.79908056,-0.60122397,0.56964349,0.8218919,0,0)" />
    </clipPath>
    <linearGradient
       inkscape:collect="always"
       xlink:href="#linearGradient5079"
       id="linearGradient5089"
       x1="105.14931"
       y1="258.34506"
       x2="637.508"
       y2="792.10309"
       gradientUnits="userSpaceOnUse"
       gradientTransform="matrix(1.1583334,0,0,1.1583334,-58.907475,-83.311994)" />
    <linearGradient
       inkscape:collect="always"
       xlink:href="#linearGradient4695"
       id="linearGradient4701"
       x1="301.32529"
       y1="606.625"
       x2="930.99414"
       y2="606.625"
       gradientUnits="userSpaceOnUse"
       gradientTransform="matrix(1.0056608,0,0,1.0063224,-133.22291,24.395909)" />
    <filter
       style="color-interpolation-filters:sRGB;"
       inkscape:label="Drop Shadow"
       id="filter4776">
      <feFlood
         flood-opacity="0.2"
         flood-color="rgb(0,0,0)"
         result="flood"
         id="feFlood4778" />
      <feComposite
         in="flood"
         in2="SourceGraphic"
         operator="in"
         result="composite1"
         id="feComposite4780" />
      <feGaussianBlur
         in="composite1"
         stdDeviation="20"
         result="blur"
         id="feGaussianBlur4782" />
      <feOffset
         dx="0"
         dy="20"
         result="offset"
         id="feOffset4784" />
      <feComposite
         in="SourceGraphic"
         in2="offset"
         operator="over"
         result="composite2"
         id="feComposite4786" />
    </filter>
    <filter
       style="color-interpolation-filters:sRGB;"
       inkscape:label="Drop Shadow"
       id="filter4799">
      <feFlood
         flood-opacity="0.2"
         flood-color="rgb(0,0,0)"
         result="flood"
         id="feFlood4801" />
      <feComposite
         in="flood"
         in2="SourceGraphic"
         operator="in"
         result="composite1"
         id="feComposite4803" />
      <feGaussianBlur
         in="composite1"
         stdDeviation="20"
         result="blur"
         id="feGaussianBlur4805" />
      <feOffset
         dx="0"
         dy="20"
         result="offset"
         id="feOffset4807" />
      <feComposite
         in="SourceGraphic"
         in2="offset"
         operator="over"
         result="composite2"
         id="feComposite4809" />
    </filter>
  </defs>
  <sodipodi:namedview
     id="base"
     pagecolor="#ffffff"
     bordercolor="#666666"
     borderopacity="1.0"
     inkscape:pageopacity="0.0"
     inkscape:pageshadow="2"
     inkscape:zoom="0.949"
     inkscape:cx="500"
     inkscape:cy="500"
     inkscape:document-units="px"
     inkscape:current-layer="layer1"
     showgrid="false"
     inkscape:window-width="1920"
     inkscape:window-height="1151"
     inkscape:window-x="0"
     inkscape:window-y="1"
     inkscape:window-maximized="1"
     fit-margin-top="0"
     fit-margin-left="0"
     fit-margin-right="0"
     fit-margin-bottom="0"
     units="px" />
  <metadata
     id="metadata7">
    <rdf:RDF>
      <cc:Work
         rdf:about="">
        <dc:format>image/svg+xml</dc:format>
        <dc:type
           rdf:resource="http://purl.org/dc/dcmitype/StillImage" />
        <dc:title></dc:title>
      </cc:Work>
    </rdf:RDF>
  </metadata>
  <g
     inkscape:label="Layer 1"
     inkscape:groupmode="layer"
     id="layer1"
     transform="translate(127.95276,-26.181098)">
    <rect
       style="opacity:1;fill:#eeeeee;fill-opacity:0;stroke:#ffffff;stroke-width:0;stroke-miterlimit:4;stroke-dasharray:none;stroke-opacity:0"
       id="rect4188"
       width="1000"
       height="1000"
       x="-127.95276"
       y="26.181103"
       inkscape:export-xdpi="17.280001"
       inkscape:export-ydpi="17.280001"
       inkscape:export-filename="/Users/thomas/git/summon/mobile-app/res/icon-android-512.png" />
    <path
       style="opacity:1;fill:url(#linearGradient5089);fill-opacity:1;stroke:#ffffff;stroke-width:0;stroke-miterlimit:4;stroke-dasharray:none;stroke-opacity:0;filter:url(#filter4799)"
       d="M 372.04725,91.80611 A 434.37499,434.37499 0 0 0 -62.327749,526.1811 434.37499,434.37499 0 0 0 372.04725,960.55609 434.37499,434.37499 0 0 0 806.42224,526.1811 434.37499,434.37499 0 0 0 372.04725,91.80611 Z"
       id="path4678"
       inkscape:export-filename="/Users/thomas/git/summon/mobile-app/res/icon-android-512.png"
       inkscape:export-xdpi="17.280001"
       inkscape:export-ydpi="17.280001"
       inkscape:connector-curvature="0" />
    <path
       style="opacity:0.2;fill:url(#linearGradient4701);fill-opacity:1;fill-rule:evenodd;stroke:none;stroke-width:1px;stroke-linecap:butt;stroke-linejoin:miter;stroke-opacity:1"
       d="m 535.63383,308.53852 -162.01549,6.06742 -51.98402,24.27556 -31.1912,49.41593 18.19421,52.01823 235.6605,177.72794 -87.50624,141.31558 -195.14571,-47.64812 -92.01109,-52.91144 1.90182,26.45096 1.91143,9.6539 4.65208,11.77202 6.70252,13.92437 12.39558,17.31059 223.54728,220.16786 C 621.10502,933.64427 779.85002,778.12527 803.04138,577.48802 Z"
       id="path4685"
       inkscape:export-filename="/Users/thomas/git/summon/mobile-app/res/icon-android-512.png"
       inkscape:export-xdpi="17.280001"
       inkscape:export-ydpi="17.280001"
       inkscape:connector-curvature="0"
       sodipodi:nodetypes="ccccccccccccccccc" />
    <path
       style="opacity:1;fill:#ffffff;fill-opacity:1;stroke:#ffffff;stroke-width:0;stroke-miterlimit:4;stroke-dasharray:none;stroke-opacity:0"
       d="m 417.38119,266.93111 c 19.64472,0 38.81703,2.86018 57.51729,8.57965 18.88914,5.71945 35.70199,13.83621 50.43551,24.35263 14.73353,10.51642 26.53819,23.06349 35.41609,37.63888 9.06677,14.57541 13.60016,30.7171 13.60016,48.42897 0,10.5164 -1.88951,21.30971 -5.66734,32.37964 -3.58892,11.0699 -9.44306,22.6024 -17.5654,34.59484 -7.93343,11.62337 -16.62423,20.29335 -26.06881,26.01281 -9.25567,5.53495 -17.6597,8.30333 -25.21534,8.30333 -5.66675,0 -10.29414,-1.56782 -13.88308,-4.70429 -3.58893,-3.32097 -5.38444,-8.21033 -5.38444,-14.66779 0,-4.79694 1.13272,-10.42312 3.39943,-16.88059 2.2667,-6.64195 6.13972,-14.20784 11.61758,-22.6948 5.10007,-8.11791 8.8767,-15.6815 11.33227,-22.69243 2.45558,-7.19544 3.68475,-13.83857 3.68475,-19.92702 0,-9.40945 -2.64388,-17.61801 -7.93283,-24.62895 -5.10007,-7.19544 -12.27977,-13.19357 -21.53542,-17.99052 -9.0668,-4.79696 -20.0207,-8.39394 -32.8653,-10.79243 -12.84464,-2.3985 -26.9172,-3.5967 -42.2174,-3.5967 -17.00022,0 -31.82957,1.93738 -44.48529,5.81185 -12.46682,3.68999 -22.95075,8.57934 -31.45084,14.66779 -8.31124,5.90397 -14.54376,12.54473 -18.69936,19.92466 -3.96673,7.37995 -5.95024,14.66811 -5.95024,21.86355 0,12.17689 3.58863,23.06201 10.7665,32.65593 7.36677,9.59393 16.99994,18.54165 28.90008,26.84411 12.08907,8.11795 25.68925,15.86748 40.80055,23.24741 15.30022,7.37995 30.88391,15.03532 46.75078,22.96875 16.05576,7.74893 31.63947,16.14584 46.75077,25.18625 15.30021,8.85595 28.90041,18.91009 40.80054,30.1645 12.08907,11.25442 21.72223,23.9851 28.90009,38.1915 7.36675,14.20639 11.05183,30.44226 11.05183,48.70762 0,16.60488 -2.74031,31.91797 -8.21815,45.93985 -5.47785,13.8374 -13.03352,26.29032 -22.66696,37.36023 -9.44458,11.06992 -20.68286,20.84864 -33.71637,29.33558 -13.03351,8.48692 -27.10608,15.49727 -42.21739,21.03223 -15.1113,5.53498 -30.97697,9.68752 -47.59941,12.455 -16.62244,2.95198 -33.34131,4.42795 -50.15266,4.42795 -23.6114,0 -46.56035,-2.86017 -68.84953,-8.57962 -22.28919,-5.53496 -42.12428,-14.02129 -59.50232,-25.4602 -17.378,-11.25443 -31.35415,-25.3693 -41.93208,-42.34318 -10.38902,-17.15835 -15.58518,-37.17719 -15.58518,-60.05501 0,-11.80792 1.88951,-22.13985 5.66733,-30.99578 3.96671,-9.04042 8.78451,-16.51217 14.45124,-22.41613 5.85564,-6.08844 12.18215,-10.60823 18.98224,-13.5602 6.80009,-3.13647 13.12902,-4.70427 18.98465,-4.70427 6.04452,0 11.05029,1.6596 15.017,4.98057 4.15562,3.13648 6.23312,8.11765 6.23312,14.9441 0,3.13648 -0.37837,6.45806 -1.13393,9.96352 -0.7556,3.50547 -1.60635,7.38022 -2.55081,11.6237 -0.75554,4.05896 -1.50991,8.57874 -2.2655,13.56019 -0.75554,4.98147 -1.13393,10.42404 -1.13393,16.328 0,12.91489 3.02226,24.07778 9.06678,33.48722 6.04453,9.40942 14.07257,17.15895 24.0838,23.2474 10.01124,6.08847 21.53393,10.60822 34.56743,13.56023 13.03352,2.95196 26.53969,4.42796 40.51765,4.42796 16.43356,0 32.86561,-1.9374 49.29918,-5.81186 16.43354,-3.87447 31.16887,-9.59481 44.2024,-17.15925 13.03349,-7.56446 23.6114,-16.7876 31.73372,-27.67302 8.12234,-11.06993 12.18336,-23.70881 12.18336,-37.91521 0,-13.09938 -3.68505,-24.81548 -11.05179,-35.1474 -7.17788,-10.33193 -16.81106,-19.83287 -28.9001,-28.5043 -11.90016,-8.85594 -25.50034,-17.15867 -40.80054,-24.90762 -15.3002,-7.74894 -30.88389,-15.59028 -46.75078,-23.52371 -15.86686,-7.93343 -31.45056,-16.23616 -46.75076,-24.90759 -15.30022,-8.85592 -28.99439,-18.54285 -41.08343,-29.05927 -11.90018,-10.51644 -21.53333,-22.23016 -28.90008,-35.14506 -7.17788,-13.0994 -10.76651,-27.95348 -10.76651,-44.55834 0,-15.49787 3.7766,-30.71914 11.33226,-45.66354 7.74456,-15.12889 19.26723,-28.5964 34.56744,-40.40432 15.48908,-11.99239 34.75783,-21.67931 57.80257,-29.05924 23.04478,-7.37995 50.05471,-11.06876 81.03291,-11.06876 z"
       id="path4668"
       inkscape:export-filename="/Users/thomas/git/summon/mobile-app/res/icon-android-512.png"
       inkscape:export-xdpi="17.280001"
       inkscape:export-ydpi="17.280001"
       inkscape:connector-curvature="0" />
    <text
       xml:space="preserve"
       style="font-style:normal;font-weight:normal;font-size:22.5px;line-height:125%;font-family:sans-serif;letter-spacing:0px;word-spacing:0px;fill:#000000;fill-opacity:1;stroke:none;stroke-width:1px;stroke-linecap:butt;stroke-linejoin:miter;stroke-opacity:1"
       x="-69.786919"
       y="328.61694"
       id="text4184"
       sodipodi:linespacing="125%"
       inkscape:export-filename="/Users/thomas/git/summon/mobile-app/res/icon-android-512.png"
       inkscape:export-xdpi="17.280001"
       inkscape:export-ydpi="17.280001"><tspan
         sodipodi:role="line"
         id="tspan4186"
         x="-69.786919"
         y="328.61694" /></text>
    <path
       d="M 372.04725,91.80611 A 434.37499,434.37499 0 0 0 -62.327749,526.1811 434.37499,434.37499 0 0 0 372.04725,960.55609 434.37499,434.37499 0 0 0 806.42224,526.1811 434.37499,434.37499 0 0 0 372.04725,91.80611 Z m 45.33394,175.125 c 19.64472,0 38.81703,2.86018 57.51729,8.57965 18.88914,5.71945 35.70199,13.83621 50.43551,24.35263 14.73353,10.51642 26.53819,23.06349 35.41609,37.63888 9.06677,14.57541 13.60016,30.7171 13.60016,48.42897 0,10.5164 -1.88951,21.30971 -5.66734,32.37964 -3.58892,11.0699 -9.44306,22.6024 -17.5654,34.59484 -7.93343,11.62337 -16.62423,20.29335 -26.06881,26.01281 -9.25567,5.53495 -17.6597,8.30333 -25.21534,8.30333 -5.66675,0 -10.29414,-1.56782 -13.88308,-4.70429 -3.58893,-3.32097 -5.38444,-8.21033 -5.38444,-14.66779 0,-4.79694 1.13272,-10.42312 3.39943,-16.88059 2.2667,-6.64195 6.13972,-14.20784 11.61758,-22.6948 5.10007,-8.11791 8.8767,-15.6815 11.33227,-22.69243 2.45558,-7.19544 3.68475,-13.83857 3.68475,-19.92702 0,-9.40945 -2.64388,-17.61801 -7.93283,-24.62895 -5.10007,-7.19544 -12.27977,-13.19357 -21.53542,-17.99052 -9.0668,-4.79696 -20.0207,-8.39394 -32.8653,-10.79243 -12.84464,-2.3985 -26.9172,-3.5967 -42.2174,-3.5967 -17.00022,0 -31.82957,1.93738 -44.48529,5.81185 -12.46682,3.68999 -22.95075,8.57934 -31.45084,14.66779 -8.31124,5.90397 -14.54376,12.54473 -18.69936,19.92466 -3.96673,7.37995 -5.95024,14.66811 -5.95024,21.86355 0,12.17689 3.58863,23.06201 10.7665,32.65593 7.36677,9.59393 16.99994,18.54165 28.90008,26.84411 12.08907,8.11795 25.68925,15.86748 40.80055,23.24741 15.30022,7.37995 30.88391,15.03532 46.75078,22.96875 16.05576,7.74893 31.63947,16.14584 46.75077,25.18625 15.30021,8.85595 28.90041,18.91009 40.80054,30.1645 12.08907,11.25442 21.72223,23.9851 28.90009,38.1915 7.36675,14.20639 11.05183,30.44226 11.05183,48.70762 0,16.60488 -2.74031,31.91797 -8.21815,45.93985 -5.47785,13.8374 -13.03352,26.29032 -22.66696,37.36023 -9.44458,11.06992 -20.68286,20.84864 -33.71637,29.33558 -13.03351,8.48692 -27.10608,15.49727 -42.21739,21.03223 -15.1113,5.53498 -30.97697,9.68752 -47.59941,12.455 -16.62244,2.95198 -33.34131,4.42795 -50.15266,4.42795 -23.6114,0 -46.56035,-2.86017 -68.84953,-8.57962 -22.28919,-5.53496 -42.12428,-14.02129 -59.50232,-25.4602 -17.378,-11.25443 -31.35415,-25.3693 -41.93208,-42.34318 -10.38902,-17.15835 -15.58518,-37.17719 -15.58518,-60.05501 0,-11.80792 1.88951,-22.13985 5.66733,-30.99578 3.96671,-9.04042 8.78451,-16.51217 14.45124,-22.41613 5.85564,-6.08844 12.18215,-10.60823 18.98224,-13.5602 6.80009,-3.13647 13.12902,-4.70427 18.98465,-4.70427 6.04452,0 11.05029,1.6596 15.017,4.98057 4.15562,3.13648 6.23312,8.11765 6.23312,14.9441 0,3.13648 -0.37837,6.45806 -1.13393,9.96352 -0.7556,3.50547 -1.60635,7.38022 -2.55081,11.6237 -0.75554,4.05896 -1.50991,8.57874 -2.2655,13.56019 -0.75554,4.98147 -1.13393,10.42404 -1.13393,16.328 0,12.91489 3.02226,24.07778 9.06678,33.48722 6.04453,9.40942 14.07257,17.15895 24.0838,23.2474 10.01124,6.08847 21.53393,10.60822 34.56743,13.56023 13.03352,2.95196 26.53969,4.42796 40.51765,4.42796 16.43356,0 32.86561,-1.9374 49.29918,-5.81186 16.43354,-3.87447 31.16887,-9.59481 44.2024,-17.15925 13.03349,-7.56446 23.6114,-16.7876 31.73372,-27.67302 8.12234,-11.06993 12.18336,-23.70881 12.18336,-37.91521 0,-13.09938 -3.68505,-24.81548 -11.05179,-35.1474 -7.17788,-10.33193 -16.81106,-19.83287 -28.9001,-28.5043 -11.90016,-8.85594 -25.50034,-17.15867 -40.80054,-24.90762 -15.3002,-7.74894 -30.88389,-15.59028 -46.75078,-23.52371 -15.86686,-7.93343 -31.45056,-16.23616 -46.75076,-24.90759 -15.30022,-8.85592 -28.99439,-18.54285 -41.08343,-29.05927 -11.90018,-10.51644 -21.53333,-22.23016 -28.90008,-35.14506 -7.17788,-13.0994 -10.76651,-27.95348 -10.76651,-44.55834 0,-15.49787 3.7766,-30.71914 11.33226,-45.66354 7.74456,-15.12889 19.26723,-28.5964 34.56744,-40.40432 15.48908,-11.99239 34.75783,-21.67931 57.80257,-29.05924 23.04478,-7.37995 50.05471,-11.06876 81.03291,-11.06876 z"
       style="opacity:1;fill:#444444;fill-opacity:0;stroke:#ffffff;stroke-width:0;stroke-miterlimit:4;stroke-dasharray:none;stroke-opacity:0"
       id="path4662"
       inkscape:export-filename="/Users/thomas/git/summon/mobile-app/res/icon-android-512.png"
       inkscape:export-xdpi="17.280001"
       inkscape:export-ydpi="17.280001"
       inkscape:connector-curvature="0" />
    <rect
       style="opacity:1;fill:#000000;fill-opacity:0;stroke:#ffffff;stroke-width:0;stroke-miterlimit:4;stroke-dasharray:none;stroke-opacity:0"
       id="rect4680"
       width="407.7977"
       height="251.84406"
       x="-110.03917"
       y="328.60468"
       inkscape:export-filename="/Users/thomas/git/summon/mobile-app/res/icon-android-512.png"
       inkscape:export-xdpi="17.280001"
       inkscape:export-ydpi="17.280001" />
  </g>
  <g
     transform="translate(127.95276,-26.181098)"
     id="g4604"
     inkscape:groupmode="layer"
     inkscape:label="Layer 1 copy">
    <path
       inkscape:connector-curvature="0"
       d="M 372.04725,91.80611 A 434.37499,434.37499 0 0 0 -62.327749,526.1811 434.37499,434.37499 0 0 0 372.04725,960.55609 434.37499,434.37499 0 0 0 806.42224,526.1811 434.37499,434.37499 0 0 0 372.04725,91.80611 Z m 45.33394,175.125 c 19.64472,0 38.81703,2.86018 57.51729,8.57965 18.88914,5.71945 35.70199,13.83621 50.43551,24.35263 14.73353,10.51642 26.53819,23.06349 35.41609,37.63888 9.06677,14.57541 13.60016,30.7171 13.60016,48.42897 0,10.5164 -1.88951,21.30971 -5.66734,32.37964 -3.58892,11.0699 -9.44306,22.6024 -17.5654,34.59484 -7.93343,11.62337 -16.62423,20.29335 -26.06881,26.01281 -9.25567,5.53495 -17.6597,8.30333 -25.21534,8.30333 -5.66675,0 -10.29414,-1.56782 -13.88308,-4.70429 -3.58893,-3.32097 -5.38444,-8.21033 -5.38444,-14.66779 0,-4.79694 1.13272,-10.42312 3.39943,-16.88059 2.2667,-6.64195 6.13972,-14.20784 11.61758,-22.6948 5.10007,-8.11791 8.8767,-15.6815 11.33227,-22.69243 2.45558,-7.19544 3.68475,-13.83857 3.68475,-19.92702 0,-9.40945 -2.64388,-17.61801 -7.93283,-24.62895 -5.10007,-7.19544 -12.27977,-13.19357 -21.53542,-17.99052 -9.0668,-4.79696 -20.0207,-8.39394 -32.8653,-10.79243 -12.84464,-2.3985 -26.9172,-3.5967 -42.2174,-3.5967 -17.00022,0 -31.82957,1.93738 -44.48529,5.81185 -12.46682,3.68999 -22.95075,8.57934 -31.45084,14.66779 -8.31124,5.90397 -14.54376,12.54473 -18.69936,19.92466 -3.96673,7.37995 -5.95024,14.66811 -5.95024,21.86355 0,12.17689 3.58863,23.06201 10.7665,32.65593 7.36677,9.59393 16.99994,18.54165 28.90008,26.84411 12.08907,8.11795 25.68925,15.86748 40.80055,23.24741 15.30022,7.37995 30.88391,15.03532 46.75078,22.96875 16.05576,7.74893 31.63947,16.14584 46.75077,25.18625 15.30021,8.85595 28.90041,18.91009 40.80054,30.1645 12.08907,11.25442 21.72223,23.9851 28.90009,38.1915 7.36675,14.20639 11.05183,30.44226 11.05183,48.70762 0,16.60488 -2.74031,31.91797 -8.21815,45.93985 -5.47785,13.8374 -13.03352,26.29032 -22.66696,37.36023 -9.44458,11.06992 -20.68286,20.84864 -33.71637,29.33558 -13.03351,8.48692 -27.10608,15.49727 -42.21739,21.03223 -15.1113,5.53498 -30.97697,9.68752 -47.59941,12.455 -16.62244,2.95198 -33.34131,4.42795 -50.15266,4.42795 -23.6114,0 -46.56035,-2.86017 -68.84953,-8.57962 -22.28919,-5.53496 -42.12428,-14.02129 -59.50232,-25.4602 -17.378,-11.25443 -31.35415,-25.3693 -41.93208,-42.34318 -10.38902,-17.15835 -15.58518,-37.17719 -15.58518,-60.05501 0,-11.80792 1.88951,-22.13985 5.66733,-30.99578 3.96671,-9.04042 8.78451,-16.51217 14.45124,-22.41613 5.85564,-6.08844 12.18215,-10.60823 18.98224,-13.5602 6.80009,-3.13647 13.12902,-4.70427 18.98465,-4.70427 6.04452,0 11.05029,1.6596 15.017,4.98057 4.15562,3.13648 6.23312,8.11765 6.23312,14.9441 0,3.13648 -0.37837,6.45806 -1.13393,9.96352 -0.7556,3.50547 -1.60635,7.38022 -2.55081,11.6237 -0.75554,4.05896 -1.50991,8.57874 -2.2655,13.56019 -0.75554,4.98147 -1.13393,10.42404 -1.13393,16.328 0,12.91489 3.02226,24.07778 9.06678,33.48722 6.04453,9.40942 14.07257,17.15895 24.0838,23.2474 10.01124,6.08847 21.53393,10.60822 34.56743,13.56023 13.03352,2.95196 26.53969,4.42796 40.51765,4.42796 16.43356,0 32.86561,-1.9374 49.29918,-5.81186 16.43354,-3.87447 31.16887,-9.59481 44.2024,-17.15925 13.03349,-7.56446 23.6114,-16.7876 31.73372,-27.67302 8.12234,-11.06993 12.18336,-23.70881 12.18336,-37.91521 0,-13.09938 -3.68505,-24.81548 -11.05179,-35.1474 -7.17788,-10.33193 -16.81106,-19.83287 -28.9001,-28.5043 -11.90016,-8.85594 -25.50034,-17.15867 -40.80054,-24.90762 -15.3002,-7.74894 -30.88389,-15.59028 -46.75078,-23.52371 -15.86686,-7.93343 -31.45056,-16.23616 -46.75076,-24.90759 -15.30022,-8.85592 -28.99439,-18.54285 -41.08343,-29.05927 -11.90018,-10.51644 -21.53333,-22.23016 -28.90008,-35.14506 -7.17788,-13.0994 -10.76651,-27.95348 -10.76651,-44.55834 0,-15.49787 3.7766,-30.71914 11.33226,-45.66354 7.74456,-15.12889 19.26723,-28.5964 34.56744,-40.40432 15.48908,-11.99239 34.75783,-21.67931 57.80257,-29.05924 23.04478,-7.37995 50.05471,-11.06876 81.03291,-11.06876 z"
       style="opacity:1;fill:#444444;fill-opacity:0;stroke:#ffffff;stroke-width:0;stroke-miterlimit:4;stroke-dasharray:none;stroke-opacity:0"
       id="path4608" />
    <path
       id="path4656"
       style="opacity:1;fill:#444444;fill-opacity:0;stroke:#ffffff;stroke-width:0;stroke-miterlimit:4;stroke-dasharray:none;stroke-opacity:0"
       d="M 372.04725,91.80611 A 434.37499,434.37499 0 0 0 -62.327749,526.1811 434.37499,434.37499 0 0 0 372.04725,960.55609 434.37499,434.37499 0 0 0 806.42224,526.1811 434.37499,434.37499 0 0 0 372.04725,91.80611 Z m 45.33394,175.125 c 19.64472,0 38.81703,2.86018 57.51729,8.57965 18.88914,5.71945 35.70199,13.83621 50.43551,24.35263 14.73353,10.51642 26.53819,23.06349 35.41609,37.63888 9.06677,14.57541 13.60016,30.7171 13.60016,48.42897 0,10.5164 -1.88951,21.30971 -5.66734,32.37964 -3.58892,11.0699 -9.44306,22.6024 -17.5654,34.59484 -7.93343,11.62337 -16.62423,20.29335 -26.06881,26.01281 -9.25567,5.53495 -17.6597,8.30333 -25.21534,8.30333 -5.66675,0 -10.29414,-1.56782 -13.88308,-4.70429 -3.58893,-3.32097 -5.38444,-8.21033 -5.38444,-14.66779 0,-4.79694 1.13272,-10.42312 3.39943,-16.88059 2.2667,-6.64195 6.13972,-14.20784 11.61758,-22.6948 5.10007,-8.11791 8.8767,-15.6815 11.33227,-22.69243 2.45558,-7.19544 3.68475,-13.83857 3.68475,-19.92702 0,-9.40945 -2.64388,-17.61801 -7.93283,-24.62895 -5.10007,-7.19544 -12.27977,-13.19357 -21.53542,-17.99052 -9.0668,-4.79696 -20.0207,-8.39394 -32.8653,-10.79243 -12.84464,-2.3985 -26.9172,-3.5967 -42.2174,-3.5967 -17.00022,0 -31.82957,1.93738 -44.48529,5.81185 -12.46682,3.68999 -22.95075,8.57934 -31.45084,14.66779 -8.31124,5.90397 -14.54376,12.54473 -18.69936,19.92466 -3.96673,7.37995 -5.95024,14.66811 -5.95024,21.86355 0,12.17689 3.58863,23.06201 10.7665,32.65593 7.36677,9.59393 16.99994,18.54165 28.90008,26.84411 12.08907,8.11795 25.68925,15.86748 40.80055,23.24741 15.30022,7.37995 30.88391,15.03532 46.75078,22.96875 16.05576,7.74893 31.63947,16.14584 46.75077,25.18625 15.30021,8.85595 28.90041,18.91009 40.80054,30.1645 12.08907,11.25442 21.72223,23.9851 28.90009,38.1915 7.36675,14.20639 11.05183,30.44226 11.05183,48.70762 0,16.60488 -2.74031,31.91797 -8.21815,45.93985 -5.47785,13.8374 -13.03352,26.29032 -22.66696,37.36023 -9.44458,11.06992 -20.68286,20.84864 -33.71637,29.33558 -13.03351,8.48692 -27.10608,15.49727 -42.21739,21.03223 -15.1113,5.53498 -30.97697,9.68752 -47.59941,12.455 -16.62244,2.95198 -33.34131,4.42795 -50.15266,4.42795 -23.6114,0 -46.56035,-2.86017 -68.84953,-8.57962 -22.28919,-5.53496 -42.12428,-14.02129 -59.50232,-25.4602 -17.378,-11.25443 -31.35415,-25.3693 -41.93208,-42.34318 -10.38902,-17.15835 -15.58518,-37.17719 -15.58518,-60.05501 0,-11.80792 1.88951,-22.13985 5.66733,-30.99578 3.96671,-9.04042 8.78451,-16.51217 14.45124,-22.41613 5.85564,-6.08844 12.18215,-10.60823 18.98224,-13.5602 6.80009,-3.13647 13.12902,-4.70427 18.98465,-4.70427 6.04452,0 11.05029,1.6596 15.017,4.98057 4.15562,3.13648 6.23312,8.11765 6.23312,14.9441 0,3.13648 -0.37837,6.45806 -1.13393,9.96352 -0.7556,3.50547 -1.60635,7.38022 -2.55081,11.6237 -0.75554,4.05896 -1.50991,8.57874 -2.2655,13.56019 -0.75554,4.98147 -1.13393,10.42404 -1.13393,16.328 0,12.91489 3.02226,24.07778 9.06678,33.48722 6.04453,9.40942 14.07257,17.15895 24.0838,23.2474 10.01124,6.08847 21.53393,10.60822 34.56743,13.56023 13.03352,2.95196 26.53969,4.42796 40.51765,4.42796 16.43356,0 32.86561,-1.9374 49.29918,-5.81186 16.43354,-3.87447 31.16887,-9.59481 44.2024,-17.15925 13.03349,-7.56446 23.6114,-16.7876 31.73372,-27.67302 8.12234,-11.06993 12.18336,-23.70881 12.18336,-37.91521 0,-13.09938 -3.68505,-24.81548 -11.05179,-35.1474 -7.17788,-10.33193 -16.81106,-19.83287 -28.9001,-28.5043 -11.90016,-8.85594 -25.50034,-17.15867 -40.80054,-24.90762 -15.3002,-7.74894 -30.88389,-15.59028 -46.75078,-23.52371 -15.86686,-7.93343 -31.45056,-16.23616 -46.75076,-24.90759 -15.30022,-8.85592 -28.99439,-18.54285 -41.08343,-29.05927 -11.90018,-10.51644 -21.53333,-22.23016 -28.90008,-35.14506 -7.17788,-13.0994 -10.76651,-27.95348 -10.76651,-44.55834 0,-15.49787 3.7766,-30.71914 11.33226,-45.66354 7.74456,-15.12889 19.26723,-28.5964 34.56744,-40.40432 15.48908,-11.99239 34.75783,-21.67931 57.80257,-29.05924 23.04478,-7.37995 50.05471,-11.06876 81.03291,-11.06876 z"
       inkscape:connector-curvature="0" />
    <path
       inkscape:connector-curvature="0"
       style="opacity:1;fill:#000000;fill-opacity:0.2;stroke:#ffffff;stroke-width:0;stroke-miterlimit:4;stroke-dasharray:none;stroke-opacity:0"
       d="m 406.04919,328.64594 c -17.00022,0 -31.83061,1.93803 -44.48633,5.8125 -12.46681,3.68999 -22.94912,8.57952 -31.44921,14.66797 -8.31124,5.90397 -14.54558,12.5439 -18.70118,19.92383 -3.96673,7.37995 -5.94921,14.66784 -5.94921,21.86328 0,1.53424 0.0579,3.04779 0.17187,4.54102 0.53295,-6.06964 2.44497,-12.20455 5.77734,-18.4043 4.1556,-7.37993 10.38994,-14.01986 18.70118,-19.92383 8.50009,-6.08845 18.9824,-10.97798 31.44921,-14.66797 12.65572,-3.87447 27.48611,-5.8125 44.48633,-5.8125 15.3002,0 29.37216,1.19916 42.2168,3.59766 12.8446,2.39849 23.79843,5.99406 32.86523,10.79102 9.25565,4.79695 16.43509,10.79674 21.53516,17.99218 4.5146,5.98447 7.09501,12.84446 7.75586,20.57618 0.1102,-1.33892 0.17773,-2.65807 0.17773,-3.94727 0,-9.40945 -2.64464,-17.61797 -7.93359,-24.62891 -5.10007,-7.19544 -12.27951,-13.19523 -21.53516,-17.99218 -9.0668,-4.79696 -20.02063,-8.39253 -32.86523,-10.79102 -12.84464,-2.3985 -26.9166,-3.59766 -42.2168,-3.59766 z m 168.21289,61.25196 c -0.41417,9.25933 -2.27563,18.7293 -5.58007,28.41211 -3.58892,11.0699 -9.44212,22.60326 -17.56446,34.5957 -7.93343,11.62337 -16.62378,20.29421 -26.06836,26.01367 -9.25567,5.53495 -17.66115,8.30274 -25.21679,8.30274 -5.66675,0 -10.29388,-1.56861 -13.88282,-4.70508 -2.82755,-2.61644 -4.52291,-6.22181 -5.12304,-10.78516 -0.16874,1.43262 -0.25977,2.80812 -0.25977,4.11719 0,6.45746 1.79388,11.347 5.38281,14.66797 3.58894,3.13647 8.21607,4.70508 13.88282,4.70508 7.55564,0 15.96112,-2.76779 25.21679,-8.30274 9.44458,-5.71946 18.13493,-14.3903 26.06836,-26.01367 8.12234,-11.99244 13.97554,-23.5258 17.56446,-34.5957 3.77783,-11.06993 5.66796,-21.86251 5.66796,-32.37891 0,-1.3546 -0.0349,-2.69697 -0.0879,-4.0332 z m -341.52929,7.39453 c -0.0515,1.2764 -0.0859,2.55381 -0.0859,3.83398 0,16.60486 3.58774,31.4592 10.76562,44.5586 7.36675,12.9149 17.00022,24.62809 28.90039,35.14453 12.08905,10.51642 25.78377,20.20462 41.08399,29.06054 15.3002,8.67143 30.88314,16.97282 46.75,24.90625 15.86689,7.93343 31.4498,15.77646 46.75,23.52539 15.3002,7.74895 28.90062,16.05031 40.80078,24.90626 12.08904,8.67143 21.72251,18.17392 28.90039,28.50585 6.61655,9.27978 10.25367,19.67905 10.92774,31.19141 0.0749,-1.33549 0.125,-2.68051 0.125,-4.04492 0,-13.09938 -3.686,-24.81457 -11.05274,-35.14649 -7.17788,-10.33193 -16.81135,-19.83442 -28.90039,-28.50585 -11.90016,-8.85595 -25.50058,-17.15731 -40.80078,-24.90626 -15.3002,-7.74893 -30.88311,-15.59196 -46.75,-23.52539 -15.86686,-7.93343 -31.4498,-16.23482 -46.75,-24.90625 -15.30022,-8.85592 -28.99494,-18.54412 -41.08399,-29.06054 -11.90017,-10.51644 -21.53364,-22.22963 -28.90039,-35.14453 -6.57158,-11.99293 -10.12464,-25.4611 -10.67968,-40.39258 z m 16.11328,208.20312 c -0.18633,1.84756 -0.47727,3.74588 -0.90039,5.70899 -0.7556,3.50547 -1.60632,7.38152 -2.55078,11.625 -0.75554,4.05896 -1.51004,8.57714 -2.26563,13.55859 -0.75554,4.98147 -1.13281,10.42417 -1.13281,16.32813 0,1.162 0.0331,2.30582 0.082,3.43945 0.14667,-4.17159 0.49404,-8.09685 1.05078,-11.76758 0.75559,-4.98145 1.51009,-9.49963 2.26563,-13.55859 0.94446,-4.24348 1.79518,-8.11953 2.55078,-11.625 0.75556,-3.50546 1.13476,-6.82641 1.13476,-9.96289 0,-1.3177 -0.0796,-2.56591 -0.23437,-3.7461 z m 311.27539,37.47071 c -0.41543,15.03697 -3.13105,28.99026 -8.15625,41.85351 -5.47785,13.8374 -13.03258,26.29142 -22.66602,37.36133 -9.44458,11.06992 -20.68328,20.84704 -33.71679,29.33398 -13.03351,8.48692 -27.10549,15.49825 -42.2168,21.03321 -15.1113,5.53498 -30.97717,9.6876 -47.59961,12.45508 -16.62244,2.95198 -33.34099,4.42773 -50.15234,4.42773 -23.6114,0 -46.56043,-2.86063 -68.84961,-8.58008 -22.28919,-5.53496 -42.12392,-14.02007 -59.50196,-25.45898 -17.378,-11.25443 -31.35566,-25.36987 -41.93359,-42.34375 -9.70338,-16.02597 -14.8731,-34.54895 -15.51367,-55.56446 -0.0383,1.15843 -0.0703,2.32144 -0.0703,3.50977 0,22.87782 5.19496,42.89634 15.58398,60.05469 10.57793,16.97388 24.55559,31.08932 41.93359,42.34375 17.37804,11.43891 37.21277,19.92402 59.50196,25.45898 22.28918,5.71945 45.23821,8.58008 68.84961,8.58008 16.81135,0 33.5299,-1.47575 50.15234,-4.42773 16.62244,-2.76748 32.48831,-6.9201 47.59961,-12.45508 15.11131,-5.53496 29.18329,-12.54629 42.2168,-21.03321 13.03351,-8.48694 24.27221,-18.26406 33.71679,-29.33398 9.63344,-11.06991 17.18817,-23.52393 22.66602,-37.36133 5.47784,-14.02188 8.21875,-29.33457 8.21875,-45.93945 0,-1.31644 -0.0242,-2.6187 -0.0625,-3.91406 z"
       id="path4610" />
    <text
       sodipodi:linespacing="125%"
       id="text4612"
       y="328.61694"
       x="-69.786919"
       style="font-style:normal;font-weight:normal;font-size:22.5px;line-height:125%;font-family:sans-serif;letter-spacing:0px;word-spacing:0px;fill:#000000;fill-opacity:1;stroke:none;stroke-width:1px;stroke-linecap:butt;stroke-linejoin:miter;stroke-opacity:1"
       xml:space="preserve"><tspan
         y="328.61694"
         x="-69.786919"
         id="tspan4614"
         sodipodi:role="line" /></text>
  </g>
</svg>
