<svg id="svg2" xmlns:rdf="http://www.w3.org/1999/02/22-rdf-syntax-ns#" xmlns="http://www.w3.org/2000/svg" viewBox="0 0 1000 1000" height="1e3" width="1e3" version="1.1" xmlns:cc="http://creativecommons.org/ns#" xmlns:xlink="http://www.w3.org/1999/xlink" xmlns:dc="http://purl.org/dc/elements/1.1/">
 <defs id="defs4">
  <linearGradient id="linearGradient5089" y2="792.1" gradientUnits="userSpaceOnUse" y1="258.35" gradientTransform="matrix(1.1583 0 0 1.1583 -58.907 -83.312)" x2="637.51" x1="105.15">
   <stop id="stop5081" stop-color="#ffd90f" offset="0"/>
   <stop id="stop5083" stop-color="#ffa900" offset="1"/>
  </linearGradient>
  <linearGradient id="linearGradient4701" y2="606.62" gradientUnits="userSpaceOnUse" y1="606.62" gradientTransform="matrix(1.0057 0 0 1.0063 -133.22 24.396)" x2="930.99" x1="301.33">
   <stop id="stop4722" stop-color="#bf3603" offset="0"/>
   <stop id="stop4724" stop-color="#bf3603" stop-opacity="0" offset="1"/>
  </linearGradient>
  <filter id="filter4799" style="color-interpolation-filters:sRGB">
   <feFlood id="feFlood4801" flood-color="rgb(0,0,0)" flood-opacity=".2" result="flood"/>
   <feComposite id="feComposite4803" operator="in" in="flood" in2="SourceGraphic" result="composite1"/>
   <feGaussianBlur id="feGaussianBlur4805" in="composite1" stdDeviation="20" result="blur"/>
   <feOffset id="feOffset4807" dy="20" dx="0" result="offset"/>
   <feComposite id="feComposite4809" operator="over" in="SourceGraphic" in2="offset" result="composite2"/>
  </filter>
 </defs>
 <metadata id="metadata7">
  <rdf:RDF>
   <cc:Work rdf:about="">
    <dc:format>image/svg+xml</dc:format>
    <dc:type rdf:resource="http://purl.org/dc/dcmitype/StillImage"/>
    <dc:title/>
   </cc:Work>
  </rdf:RDF>
 </metadata>
 <g id="layer1" transform="translate(127.95 -26.181)">
  <rect id="rect4188" stroke-opacity="0" fill-opacity="0" height="1e3" width="1e3" y="26.181" x="-127.95"/>
  <path id="path4678" d="m372.05 91.806a434.37 434.37 0 0 0 -434.38 434.37 434.37 434.37 0 0 0 434.38 434.38 434.37 434.37 0 0 0 434.37 -434.38 434.37 434.37 0 0 0 -434.37 -434.37z" stroke-opacity="0" filter="url(#filter4799)" fill="url(#linearGradient5089)"/>
  <path id="path4685" opacity=".2" d="m535.63 308.54-162.02 6.0674-51.984 24.276-31.191 49.416 18.194 52.018 235.66 177.73-87.506 141.32-195.15-47.648-92.011-52.911 1.9018 26.451 1.9114 9.6539 4.6521 11.772 6.7025 13.924 12.396 17.311 223.55 220.17c200.38-24.45 359.12-179.96 382.31-380.6z" fill-rule="evenodd" fill="url(#linearGradient4701)"/>
  <path id="path4668" d="m417.38 266.93c19.645 0 38.817 2.8602 57.517 8.5796 18.889 5.7194 35.702 13.836 50.436 24.353 14.734 10.516 26.538 23.063 35.416 37.639 9.0668 14.575 13.6 30.717 13.6 48.429 0 10.516-1.8895 21.31-5.6673 32.38-3.5889 11.07-9.4431 22.602-17.565 34.595-7.9334 11.623-16.624 20.293-26.069 26.013-9.2557 5.535-17.66 8.3033-25.215 8.3033-5.6668 0-10.294-1.5678-13.883-4.7043-3.5889-3.321-5.3844-8.2103-5.3844-14.668 0-4.7969 1.1327-10.423 3.3994-16.881 2.2667-6.642 6.1397-14.208 11.618-22.695 5.1001-8.1179 8.8767-15.682 11.332-22.692 2.4556-7.1954 3.6848-13.839 3.6848-19.927 0-9.4094-2.6439-17.618-7.9328-24.629-5.1001-7.1954-12.28-13.194-21.535-17.991-9.0668-4.797-20.021-8.3939-32.865-10.792-12.845-2.3985-26.917-3.5967-42.217-3.5967-17 0-31.83 1.9374-44.485 5.8118-12.467 3.69-22.951 8.5793-31.451 14.668-8.3112 5.904-14.544 12.545-18.699 19.925-3.9667 7.38-5.9502 14.668-5.9502 21.864 0 12.177 3.5886 23.062 10.766 32.656 7.3668 9.5939 17 18.542 28.9 26.844 12.089 8.118 25.689 15.867 40.801 23.247 15.3 7.38 30.884 15.035 46.751 22.969 16.056 7.7489 31.639 16.146 46.751 25.186 15.3 8.856 28.9 18.91 40.801 30.164 12.089 11.254 21.722 23.985 28.9 38.192 7.3668 14.206 11.052 30.442 11.052 48.708 0 16.605-2.7403 31.918-8.2182 45.94-5.4778 13.837-13.034 26.29-22.667 37.36-9.4446 11.07-20.683 20.849-33.716 29.336-13.034 8.4869-27.106 15.497-42.217 21.032s-30.977 9.6875-47.599 12.455c-16.622 2.952-33.341 4.428-50.153 4.428-23.611 0-46.56-2.8602-68.85-8.5796-22.289-5.535-42.124-14.021-59.502-25.46-17.378-11.254-31.354-25.369-41.932-42.343-10.389-17.158-15.585-37.177-15.585-60.055 0-11.808 1.8895-22.14 5.6673-30.996 3.9667-9.0404 8.7845-16.512 14.451-22.416 5.8556-6.0884 12.182-10.608 18.982-13.56 6.8001-3.1365 13.129-4.7043 18.985-4.7043 6.0445 0 11.05 1.6596 15.017 4.9806 4.1556 3.1365 6.2331 8.1176 6.2331 14.944 0 3.1365-0.37837 6.4581-1.1339 9.9635-0.7556 3.5055-1.6064 7.3802-2.5508 11.624-0.75554 4.059-1.5099 8.5787-2.2655 13.56-0.75554 4.9815-1.1339 10.424-1.1339 16.328 0 12.915 3.0223 24.078 9.0668 33.487 6.0445 9.4094 14.073 17.159 24.084 23.247 10.011 6.0885 21.534 10.608 34.567 13.56 13.034 2.952 26.54 4.428 40.518 4.428 16.434 0 32.866-1.9374 49.299-5.8119 16.434-3.8745 31.169-9.5948 44.202-17.159 13.033-7.5645 23.611-16.788 31.734-27.673 8.1223-11.07 12.183-23.709 12.183-37.915 0-13.099-3.685-24.815-11.052-35.147-7.1779-10.332-16.811-19.833-28.9-28.504-11.9-8.8559-25.5-17.159-40.801-24.908-15.3-7.7489-30.884-15.59-46.751-23.524-15.867-7.9334-31.451-16.236-46.751-24.908-15.3-8.8559-28.994-18.543-41.083-29.059-11.9-10.516-21.533-22.23-28.9-35.145-7.1779-13.099-10.767-27.953-10.767-44.558 0-15.498 3.7766-30.719 11.332-45.664 7.7446-15.129 19.267-28.596 34.567-40.404 15.489-11.992 34.758-21.679 57.803-29.059s50.055-11.069 81.033-11.069z" stroke-opacity="0" fill="#fff"/>
  <text id="text4184" style="word-spacing:0px;letter-spacing:0px" xml:space="preserve" font-size="22.5px" line-height="125%" y="328.61694" x="-69.786919" font-family="sans-serif" fill="#000000"><tspan id="tspan4186" y="328.61694" x="-69.786919"/></text>
  <path id="path4662" d="m372.05 91.806a434.37 434.37 0 0 0 -434.38 434.37 434.37 434.37 0 0 0 434.38 434.38 434.37 434.37 0 0 0 434.37 -434.38 434.37 434.37 0 0 0 -434.37 -434.37zm45.334 175.12c19.645 0 38.817 2.8602 57.517 8.5796 18.889 5.7194 35.702 13.836 50.436 24.353 14.734 10.516 26.538 23.063 35.416 37.639 9.0668 14.575 13.6 30.717 13.6 48.429 0 10.516-1.8895 21.31-5.6673 32.38-3.5889 11.07-9.4431 22.602-17.565 34.595-7.9334 11.623-16.624 20.293-26.069 26.013-9.2557 5.535-17.66 8.3033-25.215 8.3033-5.6668 0-10.294-1.5678-13.883-4.7043-3.5889-3.321-5.3844-8.2103-5.3844-14.668 0-4.7969 1.1327-10.423 3.3994-16.881 2.2667-6.642 6.1397-14.208 11.618-22.695 5.1001-8.1179 8.8767-15.682 11.332-22.692 2.4556-7.1954 3.6848-13.839 3.6848-19.927 0-9.4094-2.6439-17.618-7.9328-24.629-5.1001-7.1954-12.28-13.194-21.535-17.991-9.0668-4.797-20.021-8.3939-32.865-10.792-12.845-2.3985-26.917-3.5967-42.217-3.5967-17 0-31.83 1.9374-44.485 5.8118-12.467 3.69-22.951 8.5793-31.451 14.668-8.3112 5.904-14.544 12.545-18.699 19.925-3.9667 7.38-5.9502 14.668-5.9502 21.864 0 12.177 3.5886 23.062 10.766 32.656 7.3668 9.5939 17 18.542 28.9 26.844 12.089 8.118 25.689 15.867 40.801 23.247 15.3 7.38 30.884 15.035 46.751 22.969 16.056 7.7489 31.639 16.146 46.751 25.186 15.3 8.856 28.9 18.91 40.801 30.164 12.089 11.254 21.722 23.985 28.9 38.192 7.3668 14.206 11.052 30.442 11.052 48.708 0 16.605-2.7403 31.918-8.2182 45.94-5.4778 13.837-13.034 26.29-22.667 37.36-9.4446 11.07-20.683 20.849-33.716 29.336-13.034 8.4869-27.106 15.497-42.217 21.032s-30.977 9.6875-47.599 12.455c-16.622 2.952-33.341 4.428-50.153 4.428-23.611 0-46.56-2.8602-68.85-8.5796-22.289-5.535-42.124-14.021-59.502-25.46-17.378-11.254-31.354-25.369-41.932-42.343-10.389-17.158-15.585-37.177-15.585-60.055 0-11.808 1.8895-22.14 5.6673-30.996 3.9667-9.0404 8.7845-16.512 14.451-22.416 5.8556-6.0884 12.182-10.608 18.982-13.56 6.8001-3.1365 13.129-4.7043 18.985-4.7043 6.0445 0 11.05 1.6596 15.017 4.9806 4.1556 3.1365 6.2331 8.1176 6.2331 14.944 0 3.1365-0.37837 6.4581-1.1339 9.9635-0.7556 3.5055-1.6064 7.3802-2.5508 11.624-0.75554 4.059-1.5099 8.5787-2.2655 13.56-0.75554 4.9815-1.1339 10.424-1.1339 16.328 0 12.915 3.0223 24.078 9.0668 33.487 6.0445 9.4094 14.073 17.159 24.084 23.247 10.011 6.0885 21.534 10.608 34.567 13.56 13.034 2.952 26.54 4.428 40.518 4.428 16.434 0 32.866-1.9374 49.299-5.8119 16.434-3.8745 31.169-9.5948 44.202-17.159 13.033-7.5645 23.611-16.788 31.734-27.673 8.1223-11.07 12.183-23.709 12.183-37.915 0-13.099-3.685-24.815-11.052-35.147-7.1779-10.332-16.811-19.833-28.9-28.504-11.9-8.8559-25.5-17.159-40.801-24.908-15.3-7.7489-30.884-15.59-46.751-23.524-15.867-7.9334-31.451-16.236-46.751-24.908-15.3-8.8559-28.994-18.543-41.083-29.059-11.9-10.516-21.533-22.23-28.9-35.145-7.1779-13.099-10.767-27.953-10.767-44.558 0-15.498 3.7766-30.719 11.332-45.664 7.7446-15.129 19.267-28.596 34.567-40.404 15.489-11.992 34.758-21.679 57.803-29.059s50.055-11.069 81.033-11.069z" stroke-opacity="0" fill-opacity="0"/>
  <rect id="rect4680" stroke-opacity="0" fill-opacity="0" height="251.84" width="407.8" y="328.6" x="-110.04"/>
 </g>
 <g id="g4604" transform="translate(127.95 -26.181)">
  <path id="path4608" d="m372.05 91.806a434.37 434.37 0 0 0 -434.38 434.37 434.37 434.37 0 0 0 434.38 434.38 434.37 434.37 0 0 0 434.37 -434.38 434.37 434.37 0 0 0 -434.37 -434.37zm45.334 175.12c19.645 0 38.817 2.8602 57.517 8.5796 18.889 5.7194 35.702 13.836 50.436 24.353 14.734 10.516 26.538 23.063 35.416 37.639 9.0668 14.575 13.6 30.717 13.6 48.429 0 10.516-1.8895 21.31-5.6673 32.38-3.5889 11.07-9.4431 22.602-17.565 34.595-7.9334 11.623-16.624 20.293-26.069 26.013-9.2557 5.535-17.66 8.3033-25.215 8.3033-5.6668 0-10.294-1.5678-13.883-4.7043-3.5889-3.321-5.3844-8.2103-5.3844-14.668 0-4.7969 1.1327-10.423 3.3994-16.881 2.2667-6.642 6.1397-14.208 11.618-22.695 5.1001-8.1179 8.8767-15.682 11.332-22.692 2.4556-7.1954 3.6848-13.839 3.6848-19.927 0-9.4094-2.6439-17.618-7.9328-24.629-5.1001-7.1954-12.28-13.194-21.535-17.991-9.0668-4.797-20.021-8.3939-32.865-10.792-12.845-2.3985-26.917-3.5967-42.217-3.5967-17 0-31.83 1.9374-44.485 5.8118-12.467 3.69-22.951 8.5793-31.451 14.668-8.3112 5.904-14.544 12.545-18.699 19.925-3.9667 7.38-5.9502 14.668-5.9502 21.864 0 12.177 3.5886 23.062 10.766 32.656 7.3668 9.5939 17 18.542 28.9 26.844 12.089 8.118 25.689 15.867 40.801 23.247 15.3 7.38 30.884 15.035 46.751 22.969 16.056 7.7489 31.639 16.146 46.751 25.186 15.3 8.856 28.9 18.91 40.801 30.164 12.089 11.254 21.722 23.985 28.9 38.192 7.3668 14.206 11.052 30.442 11.052 48.708 0 16.605-2.7403 31.918-8.2182 45.94-5.4778 13.837-13.034 26.29-22.667 37.36-9.4446 11.07-20.683 20.849-33.716 29.336-13.034 8.4869-27.106 15.497-42.217 21.032s-30.977 9.6875-47.599 12.455c-16.622 2.952-33.341 4.428-50.153 4.428-23.611 0-46.56-2.8602-68.85-8.5796-22.289-5.535-42.124-14.021-59.502-25.46-17.378-11.254-31.354-25.369-41.932-42.343-10.389-17.158-15.585-37.177-15.585-60.055 0-11.808 1.8895-22.14 5.6673-30.996 3.9667-9.0404 8.7845-16.512 14.451-22.416 5.8556-6.0884 12.182-10.608 18.982-13.56 6.8001-3.1365 13.129-4.7043 18.985-4.7043 6.0445 0 11.05 1.6596 15.017 4.9806 4.1556 3.1365 6.2331 8.1176 6.2331 14.944 0 3.1365-0.37837 6.4581-1.1339 9.9635-0.7556 3.5055-1.6064 7.3802-2.5508 11.624-0.75554 4.059-1.5099 8.5787-2.2655 13.56-0.75554 4.9815-1.1339 10.424-1.1339 16.328 0 12.915 3.0223 24.078 9.0668 33.487 6.0445 9.4094 14.073 17.159 24.084 23.247 10.011 6.0885 21.534 10.608 34.567 13.56 13.034 2.952 26.54 4.428 40.518 4.428 16.434 0 32.866-1.9374 49.299-5.8119 16.434-3.8745 31.169-9.5948 44.202-17.159 13.033-7.5645 23.611-16.788 31.734-27.673 8.1223-11.07 12.183-23.709 12.183-37.915 0-13.099-3.685-24.815-11.052-35.147-7.1779-10.332-16.811-19.833-28.9-28.504-11.9-8.8559-25.5-17.159-40.801-24.908-15.3-7.7489-30.884-15.59-46.751-23.524-15.867-7.9334-31.451-16.236-46.751-24.908-15.3-8.8559-28.994-18.543-41.083-29.059-11.9-10.516-21.533-22.23-28.9-35.145-7.1779-13.099-10.767-27.953-10.767-44.558 0-15.498 3.7766-30.719 11.332-45.664 7.7446-15.129 19.267-28.596 34.567-40.404 15.489-11.992 34.758-21.679 57.803-29.059s50.055-11.069 81.033-11.069z" stroke-opacity="0" fill-opacity="0"/>
  <path id="path4656" d="m372.05 91.806a434.37 434.37 0 0 0 -434.38 434.37 434.37 434.37 0 0 0 434.38 434.38 434.37 434.37 0 0 0 434.37 -434.38 434.37 434.37 0 0 0 -434.37 -434.37zm45.334 175.12c19.645 0 38.817 2.8602 57.517 8.5796 18.889 5.7194 35.702 13.836 50.436 24.353 14.734 10.516 26.538 23.063 35.416 37.639 9.0668 14.575 13.6 30.717 13.6 48.429 0 10.516-1.8895 21.31-5.6673 32.38-3.5889 11.07-9.4431 22.602-17.565 34.595-7.9334 11.623-16.624 20.293-26.069 26.013-9.2557 5.535-17.66 8.3033-25.215 8.3033-5.6668 0-10.294-1.5678-13.883-4.7043-3.5889-3.321-5.3844-8.2103-5.3844-14.668 0-4.7969 1.1327-10.423 3.3994-16.881 2.2667-6.642 6.1397-14.208 11.618-22.695 5.1001-8.1179 8.8767-15.682 11.332-22.692 2.4556-7.1954 3.6848-13.839 3.6848-19.927 0-9.4094-2.6439-17.618-7.9328-24.629-5.1001-7.1954-12.28-13.194-21.535-17.991-9.0668-4.797-20.021-8.3939-32.865-10.792-12.845-2.3985-26.917-3.5967-42.217-3.5967-17 0-31.83 1.9374-44.485 5.8118-12.467 3.69-22.951 8.5793-31.451 14.668-8.3112 5.904-14.544 12.545-18.699 19.925-3.9667 7.38-5.9502 14.668-5.9502 21.864 0 12.177 3.5886 23.062 10.766 32.656 7.3668 9.5939 17 18.542 28.9 26.844 12.089 8.118 25.689 15.867 40.801 23.247 15.3 7.38 30.884 15.035 46.751 22.969 16.056 7.7489 31.639 16.146 46.751 25.186 15.3 8.856 28.9 18.91 40.801 30.164 12.089 11.254 21.722 23.985 28.9 38.192 7.3668 14.206 11.052 30.442 11.052 48.708 0 16.605-2.7403 31.918-8.2182 45.94-5.4778 13.837-13.034 26.29-22.667 37.36-9.4446 11.07-20.683 20.849-33.716 29.336-13.034 8.4869-27.106 15.497-42.217 21.032s-30.977 9.6875-47.599 12.455c-16.622 2.952-33.341 4.428-50.153 4.428-23.611 0-46.56-2.8602-68.85-8.5796-22.289-5.535-42.124-14.021-59.502-25.46-17.378-11.254-31.354-25.369-41.932-42.343-10.389-17.158-15.585-37.177-15.585-60.055 0-11.808 1.8895-22.14 5.6673-30.996 3.9667-9.0404 8.7845-16.512 14.451-22.416 5.8556-6.0884 12.182-10.608 18.982-13.56 6.8001-3.1365 13.129-4.7043 18.985-4.7043 6.0445 0 11.05 1.6596 15.017 4.9806 4.1556 3.1365 6.2331 8.1176 6.2331 14.944 0 3.1365-0.37837 6.4581-1.1339 9.9635-0.7556 3.5055-1.6064 7.3802-2.5508 11.624-0.75554 4.059-1.5099 8.5787-2.2655 13.56-0.75554 4.9815-1.1339 10.424-1.1339 16.328 0 12.915 3.0223 24.078 9.0668 33.487 6.0445 9.4094 14.073 17.159 24.084 23.247 10.011 6.0885 21.534 10.608 34.567 13.56 13.034 2.952 26.54 4.428 40.518 4.428 16.434 0 32.866-1.9374 49.299-5.8119 16.434-3.8745 31.169-9.5948 44.202-17.159 13.033-7.5645 23.611-16.788 31.734-27.673 8.1223-11.07 12.183-23.709 12.183-37.915 0-13.099-3.685-24.815-11.052-35.147-7.1779-10.332-16.811-19.833-28.9-28.504-11.9-8.8559-25.5-17.159-40.801-24.908-15.3-7.7489-30.884-15.59-46.751-23.524-15.867-7.9334-31.451-16.236-46.751-24.908-15.3-8.8559-28.994-18.543-41.083-29.059-11.9-10.516-21.533-22.23-28.9-35.145-7.1779-13.099-10.767-27.953-10.767-44.558 0-15.498 3.7766-30.719 11.332-45.664 7.7446-15.129 19.267-28.596 34.567-40.404 15.489-11.992 34.758-21.679 57.803-29.059s50.055-11.069 81.033-11.069z" stroke-opacity="0" fill-opacity="0"/>
  <path id="path4610" d="m406.05 328.65c-17 0-31.831 1.938-44.486 5.8125-12.467 3.69-22.949 8.5795-31.449 14.668-8.3112 5.904-14.546 12.544-18.701 19.924-3.9667 7.38-5.9492 14.668-5.9492 21.863 0 1.5342 0.0579 3.0478 0.17187 4.541 0.53295-6.0696 2.445-12.205 5.7773-18.404 4.1556-7.3799 10.39-14.02 18.701-19.924 8.5001-6.0884 18.982-10.978 31.449-14.668 12.656-3.8745 27.486-5.8125 44.486-5.8125 15.3 0 29.372 1.1992 42.217 3.5977s23.798 5.9941 32.865 10.791c9.2556 4.797 16.435 10.797 21.535 17.992 4.5146 5.9845 7.095 12.844 7.7559 20.576 0.1102-1.3389 0.17773-2.6581 0.17773-3.9473 0-9.4094-2.6446-17.618-7.9336-24.629-5.1001-7.1954-12.28-13.195-21.535-17.992-9.0668-4.797-20.021-8.3925-32.865-10.791-12.845-2.3985-26.917-3.5977-42.217-3.5977zm168.21 61.252c-0.41417 9.2593-2.2756 18.729-5.5801 28.412-3.5889 11.07-9.4421 22.603-17.564 34.596-7.9334 11.623-16.624 20.294-26.068 26.014-9.2557 5.535-17.661 8.3027-25.217 8.3027-5.6668 0-10.294-1.5686-13.883-4.7051-2.8276-2.6164-4.5229-6.2218-5.123-10.785-0.16874 1.4326-0.25977 2.8081-0.25977 4.1172 0 6.4575 1.7939 11.347 5.3828 14.668 3.5889 3.1365 8.2161 4.7051 13.883 4.7051 7.5556 0 15.961-2.7678 25.217-8.3027 9.4446-5.7195 18.135-14.39 26.068-26.014 8.1223-11.992 13.976-23.526 17.564-34.596 3.7778-11.07 5.668-21.863 5.668-32.379 0-1.3546-0.0349-2.697-0.0879-4.0332zm-341.53 7.3945c-0.0515 1.2764-0.0859 2.5538-0.0859 3.834 0 16.605 3.5877 31.459 10.766 44.559 7.3668 12.915 17 24.628 28.9 35.145 12.089 10.516 25.784 20.205 41.084 29.061 15.3 8.6714 30.883 16.973 46.75 24.906 15.867 7.9334 31.45 15.776 46.75 23.525s28.901 16.05 40.801 24.906c12.089 8.6714 21.723 18.174 28.9 28.506 6.6166 9.2798 10.254 19.679 10.928 31.191 0.0749-1.3355 0.125-2.6805 0.125-4.0449 0-13.099-3.686-24.815-11.053-35.146-7.1779-10.332-16.811-19.834-28.9-28.506-11.9-8.856-25.501-17.157-40.801-24.906-15.3-7.7489-30.883-15.592-46.75-23.525-15.867-7.9334-31.45-16.235-46.75-24.906-15.3-8.8559-28.995-18.544-41.084-29.061-11.9-10.516-21.534-22.23-28.9-35.145-6.5716-11.993-10.125-25.461-10.68-40.393zm16.113 208.2c-0.18633 1.8476-0.47727 3.7459-0.90039 5.709-0.7556 3.5055-1.6063 7.3815-2.5508 11.625-0.75554 4.059-1.51 8.5771-2.2656 13.559-0.75554 4.9815-1.1328 10.424-1.1328 16.328 0 1.162 0.0331 2.3058 0.082 3.4394 0.14667-4.1716 0.49404-8.0968 1.0508-11.768 0.75559-4.9814 1.5101-9.4996 2.2656-13.559 0.94446-4.2435 1.7952-8.1195 2.5508-11.625 0.75556-3.5055 1.1348-6.8264 1.1348-9.9629 0-1.3177-0.0796-2.5659-0.23437-3.7461zm311.28 37.471c-0.41543 15.037-3.131 28.99-8.1562 41.854-5.4778 13.837-13.033 26.291-22.666 37.361-9.4446 11.07-20.683 20.847-33.717 29.334-13.034 8.4869-27.105 15.498-42.217 21.033-15.111 5.535-30.977 9.6876-47.6 12.455-16.622 2.952-33.341 4.4277-50.152 4.4277-23.611 0-46.56-2.8606-68.85-8.5801-22.289-5.535-42.124-14.02-59.502-25.459-17.378-11.254-31.356-25.37-41.934-42.344-9.7034-16.026-14.873-34.549-15.514-55.564-0.0383 1.1584-0.0703 2.3214-0.0703 3.5098 0 22.878 5.195 42.896 15.584 60.055 10.578 16.974 24.556 31.089 41.934 42.344 17.378 11.439 37.213 19.924 59.502 25.459 22.289 5.7194 45.238 8.5801 68.85 8.5801 16.811 0 33.53-1.4758 50.152-4.4277 16.622-2.7675 32.488-6.9201 47.6-12.455 15.111-5.535 29.183-12.546 42.217-21.033 13.034-8.4869 24.272-18.264 33.717-29.334 9.6334-11.07 17.188-23.524 22.666-37.361 5.4778-14.022 8.2188-29.335 8.2188-45.939 0-1.3164-0.0242-2.6187-0.0625-3.9141z" stroke-opacity="0" fill-opacity=".2"/>
  <text id="text4612" style="word-spacing:0px;letter-spacing:0px" xml:space="preserve" font-size="22.5px" line-height="125%" y="328.61694" x="-69.786919" font-family="sans-serif" fill="#000000"><tspan id="tspan4614" y="328.61694" x="-69.786919"/></text>
 </g>
</svg>
