<?xml version="1.0" encoding="UTF-8" standalone="no"?>
<!-- Created with Inkscape (http://www.inkscape.org/) -->

<svg
   xmlns:dc="http://purl.org/dc/elements/1.1/"
   xmlns:cc="http://creativecommons.org/ns#"
   xmlns:rdf="http://www.w3.org/1999/02/22-rdf-syntax-ns#"
   xmlns:svg="http://www.w3.org/2000/svg"
   xmlns="http://www.w3.org/2000/svg"
   xmlns:xlink="http://www.w3.org/1999/xlink"
   xmlns:sodipodi="http://sodipodi.sourceforge.net/DTD/sodipodi-0.dtd"
   xmlns:inkscape="http://www.inkscape.org/namespaces/inkscape"
   width="1242"
   height="2208"
   viewBox="0 0 1242 2208.0001"
   id="svg5332"
   version="1.1"
   inkscape:version="0.91 r13725"
   inkscape:export-filename="/Users/thomas/git/summon/mobile-app/res/splash.png"
   inkscape:export-xdpi="90"
   inkscape:export-ydpi="90"
   sodipodi:docname="splash.svg">
  <defs
     id="defs5334">
    <linearGradient
       inkscape:collect="always"
       id="linearGradient8488">
      <stop
         style="stop-color:#000000;stop-opacity:0.49851632"
         offset="0"
         id="stop8490" />
      <stop
         style="stop-color:#000000;stop-opacity:0"
         offset="1"
         id="stop8492" />
    </linearGradient>
    <filter
       style="color-interpolation-filters:sRGB"
       inkscape:label="Drop Shadow"
       id="filter6736">
      <feFlood
         flood-opacity="0.2"
         flood-color="rgb(0,0,0)"
         result="flood"
         id="feFlood6738" />
      <feComposite
         in="flood"
         in2="SourceGraphic"
         operator="in"
         result="composite1"
         id="feComposite6740" />
      <feGaussianBlur
         in="composite1"
         stdDeviation="4"
         result="blur"
         id="feGaussianBlur6742" />
      <feOffset
         dx="0"
         dy="4"
         result="offset"
         id="feOffset6744" />
      <feComposite
         in="SourceGraphic"
         in2="offset"
         operator="over"
         result="composite2"
         id="feComposite6746" />
    </filter>
    <filter
       style="color-interpolation-filters:sRGB"
       inkscape:label="Drop Shadow"
       id="filter6813">
      <feFlood
         flood-opacity="0.2"
         flood-color="rgb(0,0,0)"
         result="flood"
         id="feFlood6815" />
      <feComposite
         in="flood"
         in2="SourceGraphic"
         operator="in"
         result="composite1"
         id="feComposite6817" />
      <feGaussianBlur
         in="composite1"
         stdDeviation="2"
         result="blur"
         id="feGaussianBlur6819" />
      <feOffset
         dx="0"
         dy="0"
         result="offset"
         id="feOffset6821" />
      <feComposite
         in="SourceGraphic"
         in2="offset"
         operator="over"
         result="composite2"
         id="feComposite6823" />
    </filter>
    <radialGradient
       inkscape:collect="always"
       xlink:href="#linearGradient8488"
       id="radialGradient8494"
       cx="781.52216"
       cy="-29.139912"
       fx="781.52216"
       fy="-29.139912"
       r="73.289785"
       gradientUnits="userSpaceOnUse"
       gradientTransform="matrix(1.7464917,0,0,0.38017062,-435.87499,-212.5919)" />
    <filter
       id="filter6736-8"
       inkscape:label="Drop Shadow"
       style="color-interpolation-filters:sRGB;">
      <feFlood
         id="feFlood6738-3"
         result="flood"
         flood-color="rgb(0,0,0)"
         flood-opacity="0.2" />
      <feComposite
         id="feComposite6740-9"
         result="composite1"
         operator="in"
         in2="SourceGraphic"
         in="flood" />
      <feGaussianBlur
         id="feGaussianBlur6742-7"
         result="blur"
         stdDeviation="4"
         in="composite1" />
      <feOffset
         id="feOffset6744-3"
         result="offset"
         dy="4"
         dx="0" />
      <feComposite
         id="feComposite6746-7"
         result="composite2"
         operator="over"
         in2="offset"
         in="SourceGraphic" />
    </filter>
    <filter
       id="filter6813-0"
       inkscape:label="Drop Shadow"
       style="color-interpolation-filters:sRGB;">
      <feFlood
         id="feFlood6815-5"
         result="flood"
         flood-color="rgb(0,0,0)"
         flood-opacity="0.2" />
      <feComposite
         id="feComposite6817-9"
         result="composite1"
         operator="in"
         in2="SourceGraphic"
         in="flood" />
      <feGaussianBlur
         id="feGaussianBlur6819-5"
         result="blur"
         stdDeviation="2"
         in="composite1" />
      <feOffset
         id="feOffset6821-4"
         result="offset"
         dy="0"
         dx="0" />
      <feComposite
         id="feComposite6823-5"
         result="composite2"
         operator="over"
         in2="offset"
         in="SourceGraphic" />
    </filter>
    <linearGradient
       id="linearGradient4188"
       inkscape:collect="always">
      <stop
         id="stop4190"
         offset="0"
         style="stop-color:#ffda6f;stop-opacity:1" />
      <stop
         style="stop-color:#ffc10f;stop-opacity:1"
         offset="0.5"
         id="stop4805" />
      <stop
         id="stop4192"
         offset="1"
         style="stop-color:#f2a508;stop-opacity:1" />
    </linearGradient>
    <filter
       id="filter6736-0"
       inkscape:label="Drop Shadow"
       style="color-interpolation-filters:sRGB;">
      <feFlood
         id="feFlood6738-0"
         result="flood"
         flood-color="rgb(0,0,0)"
         flood-opacity="0.2" />
      <feComposite
         id="feComposite6740-2"
         result="composite1"
         operator="in"
         in2="SourceGraphic"
         in="flood" />
      <feGaussianBlur
         id="feGaussianBlur6742-0"
         result="blur"
         stdDeviation="4"
         in="composite1" />
      <feOffset
         id="feOffset6744-4"
         result="offset"
         dy="4"
         dx="0" />
      <feComposite
         id="feComposite6746-9"
         result="composite2"
         operator="over"
         in2="offset"
         in="SourceGraphic" />
    </filter>
    <filter
       id="filter6813-4"
       inkscape:label="Drop Shadow"
       style="color-interpolation-filters:sRGB;">
      <feFlood
         id="feFlood6815-4"
         result="flood"
         flood-color="rgb(0,0,0)"
         flood-opacity="0.2" />
      <feComposite
         id="feComposite6817-5"
         result="composite1"
         operator="in"
         in2="SourceGraphic"
         in="flood" />
      <feGaussianBlur
         id="feGaussianBlur6819-2"
         result="blur"
         stdDeviation="2"
         in="composite1" />
      <feOffset
         id="feOffset6821-5"
         result="offset"
         dy="0"
         dx="0" />
      <feComposite
         id="feComposite6823-7"
         result="composite2"
         operator="over"
         in2="offset"
         in="SourceGraphic" />
    </filter>
    <linearGradient
       spreadMethod="pad"
       gradientUnits="userSpaceOnUse"
       y2="614.48511"
       x2="499.60852"
       y1="426.7338"
       x1="311.72232"
       id="linearGradient4225"
       xlink:href="#linearGradient4188"
       inkscape:collect="always" />
    <filter
       id="filter4963"
       inkscape:label="Drop Shadow"
       style="color-interpolation-filters:sRGB;">
      <feFlood
         id="feFlood4965"
         result="flood"
         flood-color="rgb(0,0,0)"
         flood-opacity="0.2" />
      <feComposite
         id="feComposite4967"
         result="composite1"
         operator="in"
         in2="SourceGraphic"
         in="flood" />
      <feGaussianBlur
         id="feGaussianBlur4969"
         result="blur"
         stdDeviation="2"
         in="composite1" />
      <feOffset
         id="feOffset4971"
         result="offset"
         dy="2"
         dx="0" />
      <feComposite
         id="feComposite4973"
         result="composite2"
         operator="over"
         in2="offset"
         in="SourceGraphic" />
    </filter>
    <linearGradient
       inkscape:collect="always"
       xlink:href="#linearGradient4188"
       id="linearGradient4538"
       gradientUnits="userSpaceOnUse"
       spreadMethod="pad"
       x1="311.72232"
       y1="426.7338"
       x2="499.60852"
       y2="614.48511" />
    <linearGradient
       inkscape:collect="always"
       xlink:href="#linearGradient4188"
       id="linearGradient4540"
       gradientUnits="userSpaceOnUse"
       spreadMethod="pad"
       x1="311.72232"
       y1="426.7338"
       x2="499.60852"
       y2="614.48511" />
    <linearGradient
       inkscape:collect="always"
       xlink:href="#linearGradient4188"
       id="linearGradient4542"
       gradientUnits="userSpaceOnUse"
       spreadMethod="pad"
       x1="311.72232"
       y1="426.7338"
       x2="499.60852"
       y2="614.48511" />
  </defs>
  <sodipodi:namedview
     id="base"
     pagecolor="#ffffff"
     bordercolor="#666666"
     borderopacity="1.0"
     inkscape:pageopacity="0.0"
     inkscape:pageshadow="2"
     inkscape:zoom="0.42980072"
     inkscape:cx="70.744989"
     inkscape:cy="1104"
     inkscape:document-units="px"
     inkscape:current-layer="layer1"
     showgrid="false"
     inkscape:window-width="1920"
     inkscape:window-height="1151"
     inkscape:window-x="0"
     inkscape:window-y="0"
     inkscape:window-maximized="1"
     units="px"
     fit-margin-top="0"
     fit-margin-left="0"
     fit-margin-right="0"
     fit-margin-bottom="0" />
  <metadata
     id="metadata5337">
    <rdf:RDF>
      <cc:Work
         rdf:about="">
        <dc:format>image/svg+xml</dc:format>
        <dc:type
           rdf:resource="http://purl.org/dc/dcmitype/StillImage" />
        <dc:title />
      </cc:Work>
    </rdf:RDF>
  </metadata>
  <g
     inkscape:label="Layer 1"
     inkscape:groupmode="layer"
     id="layer1"
     transform="translate(-308.04688,1593.8185)">
    <rect
       style="opacity:1;fill:#eeeeee;fill-opacity:1;stroke:#ffffff;stroke-width:0;stroke-miterlimit:4;stroke-dasharray:none;stroke-opacity:0"
       id="rect7910"
       width="1242"
       height="2208"
       x="312.7002"
       y="-1593.8185" />
    <g
       id="g7880"
       transform="translate(7.9423266,0)"
       style="opacity:1"
       inkscape:export-xdpi="90"
       inkscape:export-ydpi="90">
      <g
         transform="matrix(0.19265469,0,0,0.19265469,757.16343,666.11452)"
         style="fill:#ffc10f;fill-opacity:1"
         id="g7862">
        <path
           inkscape:connector-curvature="0"
           id="path7876"
           d="m 394.64645,-548.28629 c -0.33443,-0.87152 -0.60806,-42.95892 -0.60806,-93.52755 l 0,-91.94296 2.5651,-0.97525 c 1.4782,-0.56201 16.52197,-0.97525 35.50342,-0.97525 l 32.93833,0 -0.25343,-142.25 -0.25342,-142.25 -33.9138,-0.2635 c -22.99395,-0.1787 -34.34405,-0.6206 -35.25,-1.3724 -2.00196,-1.6615 -1.98176,-185.0834 0.0206,-186.7452 0.99447,-0.8254 37.90453,-1.0583 138.22524,-0.8725 l 136.86847,0.2536 93.02477,128.4317 c 51.16362,70.6375 93.47476,128.54604 94.02476,128.68574 0.55,0.13969 42.87399,-57.65454 94.05331,-128.43174 l 93.05326,-128.6857 136.8399,-0.2536 c 100.2996,-0.1858 137.2023,0.047 138.1967,0.8725 2.0024,1.6618 2.0226,185.0837 0.021,186.7452 -0.9059,0.7518 -12.256,1.1937 -35.25,1.3724 l -33.9138,0.2635 -0.2534,142.25 -0.2535,142.25 32.9384,0 c 18.9814,0 34.0252,0.41324 35.5034,0.97525 l 2.5651,0.97525 -0.015,92.27475 c -0.01,50.75111 -0.3733,92.83852 -0.8108,93.52757 -0.6333,0.99751 -36.3432,1.2013 -175.2347,1 l -174.43917,-0.25282 -0.25861,-93 c -0.24067,-86.54498 -0.14064,-93.08676 1.44113,-94.25 1.28512,-0.94508 10.43471,-1.25 37.50855,-1.25 l 35.8089,0 0,-89.5 c 0,-49.225 -0.3375,-89.48527 -0.75,-89.46726 -0.4125,0.018 -42.15,56.70453 -92.74997,125.97007 -69.32615,94.89946 -92.49291,125.93463 -94,125.92639 -1.49764,-0.008 -25.10845,-31.64212 -94,-125.94183 -50.6,-69.26199 -92.3375,-125.9436 -92.75,-125.95913 -0.4125,-0.0155 -0.75,40.24676 -0.75,89.47176 l 0,89.5 35.80887,0 c 27.0739,0 36.22349,0.30492 37.50861,1.25 1.58177,1.16324 1.6818,7.70502 1.44113,94.25 l -0.25861,93 -174.64194,0.2528 c -158.60557,0.22958 -174.69777,0.10729 -175.25,-1.33179 z m 953.59175,-1.47904 c -9.9104,-4.95227 -15.1717,-12.87604 -15.9744,-24.0582 -0.6807,-9.48127 1.6702,-15.9098 8.2094,-22.44899 11.5962,-11.59621 31.2451,-11.88727 42.8976,-0.63543 6.3484,6.13013 7.069,8.27889 7.1093,21.20065 0.032,10.09308 -0.2295,11.92819 -2.1329,15 -5.6427,9.1065 -14.83,13.97534 -26.3991,13.99023 -6.4764,0.008 -8.4883,-0.43901 -13.7099,-3.04826 z m 19.832,-7.10292 c 3.0844,-1.07521 3.1717,-1.2196 1.1831,-1.95527 -1.181,-0.43688 -3.5555,-3.28944 -5.2766,-6.33902 -1.721,-3.04959 -3.5362,-5.79627 -4.0338,-6.10375 -0.4975,-0.30747 -0.9045,1.85251 -0.9045,4.79997 0,5.70193 -1.1392,7.70907 -4.45,7.84024 -1.6591,0.0657 -1.478,0.34312 0.95,1.45489 3.7305,1.70818 8.1914,1.81602 12.5318,0.30294 z m -19.0318,-19.47391 c 0,-14.40795 -0.028,-14.59788 -1.84,-12.25 -4.2102,5.45715 -5.3255,14.15975 -2.6386,20.59028 1.451,3.47284 3.2895,6.29458 4.101,6.29458 0.2077,0 0.3776,-6.58569 0.3776,-14.63486 z m 30.1599,9.59717 c 4.3028,-8.02308 1.1671,-20.73225 -6.3412,-25.70101 -4.3265,-2.86314 -12.5759,-4.08803 -16.7848,-2.49225 -2.0002,0.75834 -0.9128,1.07049 5.7555,1.65218 6.587,0.57459 8.7934,1.19829 11.0974,3.13701 4.8891,4.1139 4.6784,11.88875 -0.4344,16.0293 l -2.5777,2.08753 2.8126,4.62818 c 1.547,2.54549 3.2221,4.50712 3.7226,4.35917 0.5004,-0.14795 1.7379,-1.813 2.75,-3.70011 z m -12.6599,-15.96231 c 0,-1.01149 -1.2213,-1.60108 -3.75,-1.81037 -3.2521,-0.26915 -3.75,-0.0288 -3.75,1.81037 0,1.83913 0.4979,2.07952 3.75,1.81037 2.5287,-0.20929 3.75,-0.79888 3.75,-1.81037 z"
           style="fill:#ffc10f;fill-opacity:1" />
        <path
           inkscape:connector-curvature="0"
           id="path7874"
           d="m 396.23839,-547.9073 c -0.91598,-0.91598 -1.2,-23.02067 -1.2,-93.39301 0,-83.14548 0.15523,-92.25258 1.58179,-92.8 0.86998,-0.33385 16.61998,-0.60699 35,-0.60699 l 33.41821,0 0,-143.48704 0,-143.48706 -34.75,-0.2629 -34.75,-0.263 0,-93 0,-93 137.38773,0 137.38774,0 93.11226,128.7081 c 51.21175,70.7895 93.56227,128.71368 94.11227,128.7205 0.55,0.007 42.98993,-58.0259 94.31096,-128.9616 l 93.31095,-128.9741 137.1891,0.2536 137.189,0.2535 0,93 0,93 -34.75,0.263 -34.75,0.2629 0,143.48706 0,143.48704 33.4182,0 c 18.38,0 34.13,0.27314 35,0.60699 1.4266,0.54742 1.5818,9.65452 1.5818,92.8 0,70.37234 -0.284,92.47703 -1.2,93.39301 -0.924,0.92404 -40.8064,1.2 -173.4286,1.2 -155.23808,0 -172.38358,-0.15502 -173.79998,-1.57143 -1.40563,-1.40562 -1.57143,-11.20532 -1.57143,-92.87755 0,-75.00139 0.23879,-91.50431 1.33723,-92.41593 0.91234,-0.75717 12.90689,-1.19325 37.74998,-1.37244 l 36.4128,-0.26265 0.2554,-89.94462 c 0.1404,-49.46954 -0.1256,-90.32562 -0.5913,-90.7913 -0.4657,-0.46567 -41.7398,55.05232 -91.72032,123.37331 -49.98049,68.32099 -91.95276,125.50247 -93.27171,127.06995 -1.92338,2.28581 -2.67984,2.61614 -3.8214,1.66874 -0.78281,-0.64968 -42.87176,-57.83777 -93.531,-127.08465 -51.52251,-70.4269 -92.48724,-125.52387 -92.96907,-125.04204 -0.47376,0.47376 -0.74645,41.33645 -0.60599,90.80599 l 0.25538,89.94462 36.41277,0.26265 c 24.84311,0.17919 36.83766,0.61527 37.75,1.37244 1.09844,0.91162 1.33723,17.41454 1.33723,92.41593 0,81.67223 -0.1658,91.47193 -1.57143,92.87755 -1.4164,1.41641 -18.5619,1.57143 -173.8,1.57143 -132.62222,0 -172.50453,-0.27596 -173.42857,-1.2 z m 959.18271,0.30954 c -14.3096,-3.68455 -22.3277,-13.7684 -22.351,-28.10954 -0.028,-17.14585 11.4875,-28.45863 28.9683,-28.45863 11.8401,0 21.2038,5.32852 26.2864,14.95863 1.7077,3.23573 2.1188,5.81593 2.1515,13.5041 0.036,8.57761 -0.2247,9.95646 -2.6792,14.1446 -5.0206,8.567 -13.1225,13.5194 -23.4156,14.31301 -3.2137,0.24778 -7.2459,0.0893 -8.9604,-0.35217 z m 14.7425,-9.17657 c 2.4968,-1.33621 2.3737,-2.71978 -0.2769,-3.11342 -1.3929,-0.20684 -3.4296,-2.43575 -5.7747,-6.31955 -1.9926,-3.3 -4.0618,-5.89606 -4.5982,-5.76901 -0.5365,0.12704 -1.2004,2.82704 -1.4754,6 l -0.5,5.76901 -3.5,0 -3.5,0 0,-16 0,-16 9.8382,0.007 9.8382,0.007 3.0244,3.38495 c 2.6203,2.93255 2.9513,3.93031 2.4772,7.46555 -0.3957,2.9495 -1.4004,4.78121 -3.6246,6.60815 l -3.0773,2.52755 3.2432,5.25625 c 1.7837,2.89094 3.6975,5.10481 4.2528,4.91972 2.0437,-0.68124 4.6795,-6.74445 5.2235,-12.01609 1.2571,-12.17986 -8.0616,-22.66008 -20.1485,-22.66008 -1.7349,0 -5.4993,1.1685 -8.3653,2.59667 -16.5751,8.25972 -13.6993,33.9115 4.3182,38.51756 3.457,0.88375 9.8917,0.2817 12.6252,-1.18126 z m -3.2131,-24.32702 c 1.6437,-1.98054 -1.2148,-4.60595 -5.0149,-4.60595 -3.086,0 -4.5482,1.86107 -3.5356,4.5 0.7382,1.9236 6.9778,2.00092 8.5505,0.10595 z"
           style="fill:#ffc10f;fill-opacity:1" />
        <path
           inkscape:connector-curvature="0"
           id="path7872"
           d="m 395.64646,-549.28628 c -0.79399,-2.06908 -0.79504,-180.77021 -10e-4,-182.83923 0.53668,-1.39859 4.50356,-1.58356 34.25,-1.5971 18.50365,-0.008 34.20705,-0.37344 34.89643,-0.81114 0.99696,-0.63298 1.20157,-30.04381 1,-143.73468 l -0.25342,-142.93887 -33.9138,-0.2635 c -22.99395,-0.1787 -34.34405,-0.6206 -35.25,-1.3724 -1.86289,-1.5461 -1.99658,-182.8037 -0.1362,-184.6641 0.92155,-0.9215 32.70164,-1.2 136.95737,-1.2 l 135.75737,0 2.58625,3.25 c 1.42244,1.7875 43.62912,59.947 93.79263,129.2433 50.16351,69.2964 91.65638,125.99639 92.20638,126.00005 0.55,0.004 42.625,-57.43805 93.5,-127.64825 50.87503,-70.2102 93.11763,-128.3727 93.87243,-129.25 1.2438,-1.4455 14.0936,-1.5951 137.05,-1.5951 104.1937,0 135.9561,0.2785 136.8776,1.2 1.8604,1.8604 1.7267,183.118 -0.1362,184.6641 -0.906,0.7518 -12.2561,1.1937 -35.25,1.3724 l -33.9138,0.2635 -0.2534,142.93887 c -0.2016,113.69087 0,143.1017 1,143.73468 0.6894,0.4377 16.3928,0.80272 34.8964,0.81114 29.7464,0.0135 33.7133,0.19851 34.25,1.5971 0.914,2.38175 0.6995,181.72435 -0.2191,183.17104 -0.6333,0.9975 -36.1432,1.20131 -174.2347,1 l -173.43923,-0.25283 0,-92.5 0,-92.5 37.00003,-0.53091 c 20.35,-0.292 37.1125,-0.6295 37.25,-0.75 0.833,-0.72999 0.1088,-183.33753 -0.726,-183.05242 -0.5368,0.18333 -42.6207,57.25833 -93.51981,126.83333 -50.89912,69.575 -93.18717,126.5 -93.97344,126.5 -0.78627,0 -43.08321,-56.925 -93.9932,-126.5 -50.90998,-69.575 -93.00775,-126.65 -93.55059,-126.83333 -0.64456,-0.21769 -0.98699,31.44105 -0.98699,91.25 0,50.37083 0.1125,91.68192 0.25,91.80242 0.1375,0.1205 16.9,0.458 37.25,0.75 l 37,0.53091 0,92.5 0,92.5 -173.64193,0.25281 c -157.69369,0.22959 -173.69778,0.10727 -174.25,-1.33179 z m 955.41914,-0.15758 c -6.8757,-2.42671 -14.4889,-10.60384 -16.5846,-17.81301 -1.946,-6.69384 -1.4529,-15.54362 1.1549,-20.72551 2.3105,-4.59128 8.2307,-10.54488 12.9025,-12.97532 5.6067,-2.91679 17.9801,-3.60175 23.9409,-1.32532 6.8948,2.63315 11.7997,6.75864 15.0434,12.65283 2.6612,4.83583 2.9818,6.34307 2.9614,13.92289 -0.018,6.75598 -0.468,9.34702 -2.1925,12.62821 -2.8769,5.47393 -10.2596,11.84522 -15.9868,13.79669 -5.7969,1.97519 -15.3921,1.90225 -21.2392,-0.16146 z m 20.6007,-7.8066 2.8721,-1.9332 -2.5,-0.35764 c -3.4077,-0.48748 -4.4154,-1.46837 -7.959,-7.7473 -4.0513,-7.17852 -5.8512,-7.11282 -6.2411,0.22779 -0.3157,5.94374 -2.0097,8.25446 -5.164,7.04404 -1.4174,-0.5439 -1.6359,-2.70243 -1.6359,-16.15915 l 0,-15.53138 8.5497,0 c 8.8954,0 13.6435,1.45518 14.8291,4.5448 0.3417,0.89033 0.6212,3.34936 0.6212,5.46451 0,3.14983 -0.5881,4.30646 -3.25,6.39184 l -3.25,2.5461 3.196,5.77638 c 1.7578,3.177 3.7828,5.77637 4.5,5.77637 0.7172,0 2.3755,-2.16082 3.6851,-4.80182 4.746,-9.57117 2.2912,-20.26312 -6.2239,-27.10879 -3.5589,-2.86111 -4.4203,-3.08939 -11.6572,-3.08939 -7.2111,0 -8.111,0.23607 -11.6572,3.05797 -6.0252,4.79459 -8.5393,10.56484 -8.1256,18.64893 0.4199,8.20355 3.8997,13.86563 10.7828,17.54508 5.4847,2.93189 14.0348,2.79643 18.6279,-0.29514 z m -5.2103,-22.77294 c 0.9899,-0.72385 1.6344,-2.18635 1.4321,-3.25 -0.2914,-1.53257 -1.3516,-1.99715 -5.1087,-2.23869 -4.6307,-0.2977 -4.741,-0.23757 -4.741,2.58333 0,1.58847 0.3,3.18813 0.6667,3.55479 1.1321,1.13218 5.8557,0.73641 7.7509,-0.64943 z"
           style="fill:#ffc10f;fill-opacity:1" />
        <path
           inkscape:connector-curvature="0"
           id="path7870"
           d="m 396.49902,-548.9573 c -0.26213,-0.6875 -0.3605,-42.425 -0.21861,-92.75 l 0.25798,-91.5 34.5,-0.5 34.5,-0.5 0,-144 0,-144 -34.5,-0.5 -34.5,-0.5 -0.25521,-92.25 -0.2552,-92.25 136.77692,0 136.77692,0 93.4062,129 c 51.37342,70.95 93.93383,129 94.5787,129 0.64487,0 43.19896,-58.05 94.56465,-129 l 93.39213,-129 136.7627,0 136.7626,0 -0.2552,92.25 -0.2552,92.25 -34.5,0.5 -34.5,0.5 0,144 0,144 34.5,0.5 34.5,0.5 0,92.5 0,92.5 -172.3941,0.25285 c -126.5883,0.18566 -172.75439,-0.0462 -173.75002,-0.87245 -1.12287,-0.9319 -1.35589,-16.6433 -1.35589,-91.42106 0,-49.66267 0.27314,-91.00757 0.60699,-91.87755 0.53827,-1.40272 4.77146,-1.58179 37.39302,-1.58179 32.6215,0 36.8547,-0.17907 37.393,-1.58179 1.0644,-2.77371 0.6659,-180.78178 -0.4083,-182.41821 -0.6654,-1.01363 -1.2279,-1.15046 -1.7347,-0.422 -14.918,21.44215 -185.84682,253.422 -186.72795,253.422 -0.70329,0 -42.80464,-56.8125 -93.55854,-126.25 -50.7539,-69.4375 -92.67739,-126.69624 -93.16331,-127.24164 -0.56977,-0.63952 -1.21836,-0.46198 -1.82654,0.5 -1.03552,1.6379 -1.39353,179.73393 -0.36668,182.40985 0.53827,1.40272 4.77146,1.58179 37.39301,1.58179 32.62155,0 36.85474,0.17907 37.39301,1.58179 0.33385,0.86998 0.60699,42.17998 0.60699,91.8 0,68.83638 -0.2844,90.50261 -1.2,91.41821 -1.79116,1.79116 -345.6563,1.74151 -346.33937,-0.05 z m 959.03938,0.37808 c -8.7721,-2.29284 -16.2885,-8.2492 -19.5936,-15.52696 -1.2865,-2.83278 -1.8693,-6.46261 -1.8844,-11.73693 -0.019,-6.44132 0.4149,-8.47208 2.7707,-12.98172 8.3983,-16.07613 31.8979,-19.69903 45.5505,-7.02245 10.2508,9.5179 10.8389,27.51777 1.2691,38.83889 -5.4559,6.45422 -19.5268,10.67325 -28.1123,8.42917 z m 15.5,-7.68088 c 3.6139,-1.9028 7.7218,-6.02387 9.6981,-9.7292 2.5169,-4.7189 2.3784,-15.11906 -0.2685,-20.16471 -4.452,-8.48682 -14.3483,-13.05969 -23.1615,-10.70251 -14.8791,3.97955 -20.7065,20.9786 -11.7138,34.1702 5.4019,7.92418 17.0254,10.85966 25.4457,6.42622 z m -19.5609,-5.74536 c -0.274,-0.71398 -0.3724,-7.57648 -0.2186,-15.25 l 0.2795,-13.95184 6,-0.31082 c 8.1327,-0.4213 12.2712,0.49109 15.1117,3.33164 4.3366,4.33654 2.9576,10.52572 -3.129,14.0437 -1.7381,1.00462 -1.6628,1.37724 1.3378,6.62173 1.7487,3.05646 3.1795,5.83993 3.1795,6.18548 0,0.34555 -1.307,0.62827 -2.9045,0.62827 -2.4948,0 -3.3604,-0.81129 -6.1352,-5.75 -1.7769,-3.1625 -3.7172,-6.06176 -4.3119,-6.4428 -2.1415,-1.37205 -3.6484,1.44293 -3.6484,6.81524 0,5.08718 -0.1367,5.37756 -2.5314,5.37756 -1.3923,0 -2.7555,-0.58417 -3.0295,-1.29816 z m 15.9875,-18.27129 c 1.1388,-1.13886 1.3032,-2.06682 0.5992,-3.38235 -1.6535,-3.08954 -7.4872,-4.18684 -9.8258,-1.8482 -1.2935,1.29351 -1.6199,5.04679 -0.5333,6.13333 1.2909,1.29096 8.2058,0.65135 9.7599,-0.90278 z"
           style="fill:#ffc10f;fill-opacity:1" />
        <path
           inkscape:connector-curvature="0"
           id="path7868"
           d="m 396.70506,-549.37397 c -0.36667,-0.36666 -0.66667,-41.48656 -0.66667,-91.37755 0,-74.46965 0.23924,-90.90944 1.3362,-91.81984 0.90595,-0.75187 12.25605,-1.19378 35.25,-1.37244 l 33.9138,-0.2635 0.27391,-142 c 0.15066,-78.1 0.031,-143.0067 -0.2658,-144.2371 l -0.53972,-2.237 -34.73419,-0.263 -34.7342,-0.2629 0,-92 0,-92 136.45696,0 136.45697,0 92.32102,127.5 c 50.77656,70.125 93.16467,128.34375 94.1958,129.37499 1.83312,1.83332 1.9104,1.83332 3.47723,0 0.88134,-1.03124 43.14458,-59.24999 93.91831,-129.37499 l 92.31592,-127.5 136.4289,0 136.4289,0 0,92 0,92 -34.7342,0.2629 -34.7342,0.263 -0.5397,2.237 c -0.2969,1.2304 -0.4165,66.1371 -0.2658,144.2371 l 0.2739,142 34.1383,0.263 c 27.1399,0.20908 34.3674,0.5389 35.2553,1.60886 0.8088,0.97448 1.0466,26.42745 0.8617,92.23701 l -0.2553,90.89113 -173.25,0.25282 -173.25001,0.25283 0,-92.00283 c 0,-50.60155 0.1125,-92.10141 0.25,-92.22191 0.1375,-0.1205 16.9,-0.458 37.25001,-0.75 l 37,-0.53091 0,-92.25 c 0,-60.67133 -0.3423,-92.33319 -1,-92.49301 -0.7526,-0.18289 -181.68688,245.54794 -186.46556,253.24301 -0.78844,1.26962 -1.30214,1.11603 -3.34465,-1 -1.32722,-1.375 -41.70219,-56.275 -89.72214,-122 -100.65765,-137.77031 -95.93457,-131.43309 -97.09293,-130.27473 -0.50458,0.50458 -0.77549,40.42416 -0.63,92.83 l 0.25527,91.94473 37,0.53091 c 20.35,0.292 37.1125,0.6295 37.25,0.75 0.1375,0.1205 0.25,41.61909 0.25,92.21909 l 0,92 -172.83333,0 c -95.05834,0 -173.13334,-0.3 -173.5,-0.66667 z m 954.38694,-1.00218 c -10.6384,-3.89692 -17.7807,-15.68481 -16.8124,-27.74767 2.2906,-28.53515 42.0256,-34.49317 53.9101,-8.08348 5.5945,12.43202 0.5174,26.86321 -12.0592,34.27677 -5.6508,3.33099 -18.0818,4.1027 -25.0385,1.55438 z m 18.7285,-4.8842 c 13.8405,-5.78148 17.7921,-24.85473 7.4148,-35.78853 -13.4024,-14.1212 -36.1969,-4.46007 -36.1969,15.34158 0,15.49149 15.0501,26.18315 28.7821,20.44695 z m -18.1548,-6.97587 c -0.345,-0.89906 -0.6273,-7.39275 -0.6273,-14.43042 0,-15.54047 0.042,-15.60274 9.9831,-14.67885 3.8154,0.35461 8.0577,1.1553 9.4273,1.7793 5.1446,2.34407 5.4283,10.90752 0.455,13.73628 -3.4711,1.9743 -3.5289,3.44401 -0.3393,8.62261 3.0662,4.97838 3.15,6.73851 0.3006,6.31955 -1.4144,-0.20797 -3.4511,-2.41467 -5.8329,-6.31955 -2.424,-3.97426 -4.3068,-6 -5.5767,-6 -1.6209,0 -1.9944,0.927 -2.4171,6 -0.4303,5.16308 -0.7961,6.04225 -2.6227,6.30287 -1.2521,0.17864 -2.38,-0.36763 -2.75,-1.33179 z m 16.7646,-18.72108 c 1.9752,-3.14849 -0.4269,-5.25 -6.0009,-5.25 l -4.891,0 -0.3136,3.80447 -0.3136,3.80446 5.2106,-0.30446 c 3.6403,-0.21272 5.5414,-0.83184 6.3085,-2.05447 z"
           style="fill:#ffc10f;fill-opacity:1" />
        <path
           inkscape:connector-curvature="0"
           id="path7866"
           d="m 397.03839,-640.69151 0,-91.98987 34.75,-0.26296 34.75,-0.26296 0.25339,-144.43889 c 0.20156,-114.8909 -0.003,-144.60171 -1,-145.23471 -0.68936,-0.4377 -16.44325,-0.8027 -35.00862,-0.8111 l -33.75524,-0.015 0.25524,-91.75 0.25523,-91.75 133,-0.2835 c 73.15,-0.1559 134.35,-0.021 136,0.2994 2.6416,0.5133 14.12218,15.9584 96.09821,129.2835 65.70841,90.83646 93.64133,128.7006 94.94428,128.7006 1.30257,0 29.01575,-37.53722 94.1314,-127.5 50.75692,-70.125 93.24632,-128.2891 94.42092,-129.2536 2.0156,-1.655 9.7034,-1.7393 136.7704,-1.5 l 134.6348,0.2536 0.2552,91.75 0.2553,91.75 -33.7553,0.015 c -18.5654,0.01 -34.3192,0.3734 -35.0086,0.8111 -0.997,0.633 -1.2016,30.3438 -1,145.2347 l 0.2534,144.4389 34.75,0.26296 34.75,0.26296 0,91.98987 0,91.98988 -172.75,-0.25284 -172.75001,-0.25283 0,-91.5 0,-91.5 37.00001,-0.5 37,-0.5 0.2552,-93.32432 c 0.2286,-83.62757 0.095,-93.29062 -1.2862,-93 -0.8477,0.17838 -43.18,57.24932 -94.07172,126.82432 -50.89172,69.575 -93.1327,126.5 -93.86886,126.5 -0.73615,0 -43.07047,-57.0375 -94.07627,-126.75 -51.0058,-69.7125 -93.35086,-126.75 -94.10014,-126.75 -1.14185,0 -1.32103,15.09122 -1.10717,93.25 l 0.25515,93.25 37,0.5 37,0.5 0,91.5 0,91.5 -172.75,0.25283 -172.75,0.25284 0,-91.98988 z m 955.86021,90.41645 c -5.9867,-1.84316 -14.1116,-9.12654 -16.3701,-14.6745 -1.0227,-2.51231 -1.7381,-6.92236 -1.7453,-10.75774 -0.02,-10.79983 4.3814,-18.57373 13.2486,-23.3999 13.7294,-7.47247 31.4063,-2.6945 38.4761,10.3999 2.5396,4.70368 2.9696,6.58589 2.9702,13 5e-4,6.39804 -0.4265,8.27881 -2.9061,12.80063 -6.3113,11.50957 -20.2881,16.75258 -33.6734,12.63161 z m 20.3564,-6.35464 c 6.8167,-4.32304 10.2926,-10.79273 10.2497,-19.0776 -0.068,-13.16617 -8.9069,-22.38687 -21.4663,-22.39429 -18.4353,-0.0109 -28.2114,21.62872 -16.6306,36.81198 6.0475,7.92862 19.2178,10.13252 27.8472,4.65991 z m -20.5291,-4.72343 c -0.3781,-0.37813 -0.6875,-7.18228 -0.6875,-15.12033 l 0,-14.43284 9.089,0.3495 c 8.1226,0.31234 9.2922,0.60051 11,2.71028 3.1817,3.93062 2.5135,8.4619 -1.7527,11.88436 l -3.6637,2.93913 3.1929,5.58076 c 2.061,3.60223 2.8126,5.81587 2.12,6.24395 -1.565,0.9672 -3.5797,-1.05631 -6.9948,-7.02515 -4.9879,-8.71803 -8.6889,-8.20666 -9.1933,1.27025 -0.2753,5.17224 -1.4402,7.26984 -3.1099,5.60009 z m 14.3782,-17.38935 c 2.9466,-1.57697 2.5716,-6.35342 -0.6128,-7.8043 -3.2978,-1.50258 -7.7298,-1.48367 -9.2529,0.0395 -0.66,0.66 -1.2,2.37 -1.2,3.8 0,1.43 0.54,3.14 1.2,3.8 1.4732,1.47321 7.2409,1.56956 9.8657,0.16482 z"
           style="fill:#ffc10f;fill-opacity:1" />
        <path
           inkscape:connector-curvature="0"
           id="path7864"
           d="m 397.70506,-550.37397 c -0.36667,-0.36666 -0.66667,-41.31666 -0.66667,-91 l 0,-90.33333 33.80887,0 c 25.47462,0 34.22754,-0.30814 35.50726,-1.25 1.58632,-1.16752 1.68141,-10.78451 1.44113,-145.75 l -0.25726,-144.5 -35,-0.5 -35,-0.5 0,-91 0,-91 135.2045,-0.2536 135.2045,-0.2536 2.58912,3.2536 c 1.42402,1.7895 43.63416,59.9536 93.80032,129.2536 68.59284,94.75479 91.70596,126 93.20638,126 1.50008,0 24.94877,-31.67718 94.49518,-127.6549 50.87501,-70.2102 93.11891,-128.3743 93.87541,-129.2536 1.2497,-1.4526 13.7246,-1.5755 136.5,-1.3451 l 135.1246,0.2536 0,91 0,91 -35,0.5 -35,0.5 -0.2573,144.5 c -0.2402,134.96549 -0.1452,144.58248 1.4412,145.75 1.2797,0.94187 10.0337,1.25 35.5125,1.25 l 33.8142,0 -0.2553,90.75 -0.2553,90.75 -172.25,0.25284 -172.25001,0.25284 0,-91.00284 0,-91.00284 35.56571,0 c 22.6041,0 36.2707,-0.37727 37.5,-1.03518 1.8912,-1.0121 1.9343,-3.11565 1.9343,-94.33334 0,-51.31398 -0.2842,-93.58231 -0.6315,-93.92963 -0.3473,-0.34732 -1.3598,-0.23596 -2.25,0.24746 -0.8902,0.48342 -43.2435,57.82916 -94.11851,127.43497 -50.875,69.60582 -92.95,126.5506 -93.5,126.54396 -0.55,-0.007 -42.85021,-57.2557 -94.00046,-127.22015 -51.93913,-71.04348 -93.66254,-127.20809 -94.5,-127.20809 -1.32018,0 -1.53047,11.18333 -1.75813,93.5 -0.24066,87.01508 -0.14071,93.5867 1.44113,94.75 1.2851,0.94508 10.43468,1.25 37.50859,1.25 l 35.80887,0 0,91 0,91 -171.83333,0 c -94.50834,0 -172.13334,-0.3 -172.5,-0.66667 z m 956.32684,-0.20825 c -14.4684,-4.74413 -21.8595,-18.75454 -17.6083,-33.37814 3.1354,-10.7854 13.2038,-17.74694 25.6672,-17.74694 15.015,0 25.5562,9.25516 26.6947,23.43788 1.2858,16.01858 -8.9509,27.48207 -25.1799,28.19751 -3.887,0.17135 -8.1951,-0.0583 -9.5737,-0.51031 z m 16.2886,-3.47354 c 8.5355,-3.57682 13.9042,-11.81817 13.963,-21.43431 0.083,-13.59455 -9.1119,-23.17331 -22.2451,-23.17331 -13.0072,0 -22.0129,9.28563 -21.9902,22.67396 0.017,10.23496 6.287,19.74749 14.6752,22.26526 4.3854,1.31633 12.0536,1.1533 15.5971,-0.3316 z m -17.2821,-21.56821 0,-14.08333 7.7775,0 c 9.7481,0 12.2225,1.41415 12.2225,6.98528 0,3.98342 -1.989,7.01472 -4.6028,7.01472 -2.7858,0 -2.5785,2.98419 0.5617,8.08767 1.7362,2.82157 2.8981,5.38863 2.5822,5.70457 -0.8547,0.85468 -2.682,-1.26281 -6.1116,-7.08218 -2.5906,-4.39563 -3.5285,-5.21006 -6,-5.21006 -2.8533,0 -2.9425,0.15413 -3.4295,5.92215 -0.2923,3.46194 -1.0193,6.09297 -1.75,6.33333 -0.9603,0.31589 -1.25,-2.85285 -1.25,-13.67215 z m 15.5392,-3.11588 c 1.9383,-1.60866 1.8569,-5.42852 -0.1587,-7.44414 -1.1682,-1.16816 -3.0495,-1.53645 -6.75,-1.32142 l -5.1305,0.29811 -0.3014,4.66678 c -0.245,3.79419 0.035,4.7632 1.5,5.18247 2.77,0.79299 9.2091,-0.0278 10.8406,-1.3818 z"
           style="fill:#ffc10f;fill-opacity:1" />
      </g>
      <rect
         y="554.33728"
         x="817.16223"
         height="1.4667685"
         width="0.88006109"
         id="rect7878"
         style="opacity:1;fill:#ffc10f;fill-opacity:0;stroke:#ffffff;stroke-width:0;stroke-miterlimit:4;stroke-dasharray:none;stroke-opacity:0" />
    </g>
    <ellipse
       style="opacity:0.2;fill:url(#radialGradient8494);fill-opacity:1;stroke:#ffffff;stroke-width:0;stroke-miterlimit:4;stroke-dasharray:none;stroke-opacity:0"
       id="path8486"
       cx="929.04688"
       cy="-223.67003"
       rx="127.99999"
       ry="141.01695" />
    <g
       id="g4212"
       style="fill:url(#linearGradient4225);"
       transform="matrix(2,0,0,2,120.9531,-1526.1819)">
      <path
         inkscape:connector-curvature="0"
         id="path6650-6"
         d="m 340.04689,542.18166 0,-48 64,-64 26.4004,26.40039 -88,88 -2.4004,-2.40039 z"
         style="opacity:1;fill:url(#linearGradient4538);fill-opacity:1;stroke:#ffffff;stroke-width:0;stroke-miterlimit:4;stroke-dasharray:none;stroke-opacity:0;" />
      <path
         inkscape:connector-curvature="0"
         id="rect5880-3"
         d="m 468.04689,494.18166 0,48 -64,64 -26.40039,-26.40039 88,-88 2.40039,2.40039 z"
         style="opacity:1;fill:url(#linearGradient4540);fill-opacity:1;stroke:#ffffff;stroke-width:0;stroke-miterlimit:4;stroke-dasharray:none;stroke-opacity:0;" />
      <path
         inkscape:connector-curvature="0"
         id="path4157"
         d="m 346.84863,548.98146 63.99805,-63.99805 48,0 2.39844,2.39844 -63.99805,63.99805 -48,0 -2.39844,-2.39844 z"
         style="opacity:1;fill:url(#linearGradient4542);fill-opacity:1;stroke:#ffffff;stroke-width:0;stroke-miterlimit:4;stroke-dasharray:none;stroke-opacity:0;" />
    </g>
  </g>
</svg>
