<svg xmlns="http://www.w3.org/2000/svg" viewBox="0 0 59.144 59.144" version="1.1" fill="#38c">
 <path d="m31.963 14.603 4.89 4.89-4.887 4.886-0.003-9.776zm0 29.934 4.89-4.889-4.887-4.887-0.003 9.776zm-5.221-14.967-10.571-10.598 3.064-3.063 8.421 8.425v-20.19l15.315 15.314-10.112 10.112 10.114 10.115-15.316 15.314v-20.191l-8.423 8.426-3.064-3.065 10.572-10.599zm2.832 29.574c12.914 0 21.812-6.135 21.812-29.573 0-23.437-8.898-29.571-21.812-29.571-12.913 0-21.816 6.135-21.816 29.571 0 23.438 8.902 29.573 21.816 29.573z"/>
</svg>
