<svg xmlns="http://www.w3.org/2000/svg" fill="#38c" viewBox="0 0 316.53463 299.54707" version="1.1">
 <g transform="translate(-281.79 -341.57)">
  <path d="m347.93 341.57c-6.6895 0-8.9576 0.62593-14.727 4.0625-18.473 11.005-18.413 38.202 0.10938 49.457 6.3777 3.8753 7.4355 4.1189 16.287 3.75 11.424-0.47607 17.962-4.1147 23.725-13.201 3.216-5.0711 3.6836-6.9706 3.6836-14.986 0-10.603-2.4853-16.739-9.0078-22.238-6.0306-5.0849-11.187-6.8438-20.07-6.8438zm170.4 5.3828c-9.6056-0.008-19.358 1.0015-25.811 3.0312-12.849 4.0416-25.474 12.893-39.572 27.744-11.967 12.606-13.685 15.594-10.688 18.592 2.4533 2.4533 4.7928 1.7542 10.07-3.0137 6.6264-5.9866 18.817-11.563 28.953-13.242 10.038-1.6634 22.416 0.0741 32.592 4.5742 8.5459 3.7794 19.923 14.359 23.918 22.242 1.6555 3.267 3.5662 5.9395 4.248 5.9395 0.68187 0 3.5908-1.7007 6.4629-3.7812 10.891-7.8891 25.458-9.3431 38.01-3.791 3.2675 1.4454 6.4063 2.164 6.9746 1.5957 0.56829-0.56828 0.1383-4.0959-0.95508-7.8398-6.3707-21.815-25.319-40.649-49.273-48.979-5.8655-2.0395-15.324-3.0646-24.93-3.0723zm-130.17 4.6172c-2.3136 0-2.5662 0.48094-1.8125 3.4375 2.0795 8.1575 2.1781 22.732 0.19336 28.557-1.0906 3.2008-1.6785 6.3104-1.3066 6.9121 0.37185 0.60166 2.5973 1.0938 4.9473 1.0938 5.6934 0 19.847 5.3914 26.83 10.221 7.4624 5.1605 30.889 28.187 39.834 39.154 10.062 12.336 21.585 28.812 27.9 39.893 4.6529 8.1634 5.8607 9.4594 8.8281 9.4707 2.0678 0.008 3.4375-0.66314 3.4375-1.6836 0-2.1764-9.6551-21.879-17.158-35.012-24.37-42.656-60.67-85.86-82.717-98.451-3.4574-1.9746-7.4971-3.5918-8.9766-3.5918zm-81.695 16.25c-4.4585 0-17.803 18.929-21.883 31.041-3.7317 11.077-3.717 39.352 0.0254 50.562 8.4132 25.201 27.767 44.263 53.029 52.23 2.75 0.86727 10.625 2.8347 17.5 4.373 16.071 3.5961 15.473 3.6074 16.957-0.29688 1.444-3.7979 0.75417-6.6592-1.6055-6.6602-3.0966-0.002-17.464-7.5255-22.941-12.014-7.2176-5.9143-14.965-17.84-18.064-27.805-4.34-13.954-2.5491-31.148 4.3262-41.537 1.7617-2.6621 3.2031-5.6698 3.2031-6.6836s-2.5017-2.9505-5.5586-4.3027c-7.1577-3.1662-16.453-12.486-19.641-19.693-1.375-3.1085-2.8162-8.704-3.2012-12.434-0.40233-3.8982-1.315-6.7812-2.1465-6.7812zm120.04 43.99c-6.1381 0.69366-37.717 54.881-48.895 84.129-15.013 39.286-20.635 64.157-17.311 76.562 1.0528 3.9283 2.5017 3.5561 8.8281-2.2754 6.2149-5.7287 16.811-11.13 21.871-11.148 4.897-0.0178 5.3432-1.8813 2.1934-9.1524-2.028-4.6814-2.9692-9.7904-3.3848-18.361-0.51864-10.698-0.11739-13.644 4.0391-29.727 7.0119-27.132 19.746-58.769 31.33-77.838 4.6811-7.706 5.1787-11.493 1.6016-12.182-0.0844-0.0163-0.17601-0.0188-0.27344-0.008zm144.26 1.7188c-17.182 0.009-28.788 11.699-28.723 28.934 0.0468 12.318 7.4845 23.427 18.254 27.266 10.368 3.6956 21.658 1.6445 29.389-5.3398 6.9168-6.249 8.4023-9.5878 8.5488-20.311 0.13058-1.5922 0.13059-3.1924-0.0156-4.7774-0.22884-9.4187-1.7296-12.986-7.0293-17.906-6.2347-5.788-11.643-7.8702-20.424-7.8652zm-35.391 51.021c-0.5864 0.0284-1.0295 0.56152-1.6719 1.4434-7.0412 9.6663-18.969 18.517-30.922 22.941-8.6053 3.1855-36.567 10.434-48.266 12.512-12.451 2.2118-31.698 3.8001-46.479 3.8359-12.454 0.0301-13.408 0.20912-14.186 2.6582-0.45837 1.4442-0.35541 3.0972 0.22851 3.6738 0.58392 0.57659 6.6856 1.567 13.561 2.2012 18.708 1.7258 33.866 1.6257 58.125-0.38477 47.332-3.9226 80.791-11.838 96.869-22.914 7.0806-4.8779 7.0556-7.0474-0.10156-8.8496-8.7571-2.2051-15.164-5.8931-21.424-12.334-3.3786-3.4764-4.757-4.8306-5.7344-4.7832zm-31.287 46.002c-0.7635-0.0555-1.67 0.0172-2.5352 0.23437l-3.1465 0.79102 0.74219 13.109c1.2313 21.743-4.466 36.02-20.043 50.227-9.0907 8.291-18.202 11.927-31.633 12.621l-10.17 0.52539-0.50195 11.494c-0.43673 9.9853-1.0058 12.393-4.334 18.316-2.1936 3.9044-6.5432 8.9558-10.174 11.818-7.0035 5.522-7.9498 7.7474-3.7148 8.7324 1.5469 0.35979 5.0625 1.193 7.8125 1.8516s10.062 1.0012 16.25 0.76172c27.17-1.0514 50.171-15.149 64.363-39.449 13.233-22.658 14.407-43.725 4.2168-75.646-2.4142-7.5625-4.8686-14.243-5.4551-14.846-0.29325-0.3014-0.91423-0.48548-1.6777-0.54101zm-102.09 59.865c-1.5102-0.0236-3.3441 0.0321-5.7012 0.125-8.537 0.33642-10.895 0.92913-15.301 3.8457-8.3364 5.5187-11.993 12.17-12.529 22.793-0.38549 7.6338 0.01 9.8825 2.6621 15.113 3.7353 7.3662 6.0294 9.5759 13.41 12.924 12.685 5.7538 29.132 1.4236 36.844-9.6992 3.4767-5.0148 3.7578-6.2356 3.7578-16.34 0-9.8682-0.33793-11.433-3.5-16.211-1.9247-2.9084-6.1435-6.9821-9.375-9.0547-4.1165-2.6402-5.7369-3.4254-10.268-3.4961z"/>
 </g>
</svg>
