<svg xmlns="http://www.w3.org/2000/svg" viewBox="0 0 750 750">
 <defs>
  <linearGradient id="g1" x1="-61" gradientUnits="userSpaceOnUse" y1="93" gradientTransform="matrix(.8 0 0 .8 53 -79)" x2="806" y2="961">
   <stop stop-color="#fd0" offset="0"/>
   <stop stop-color="#fa0" offset="1"/>
  </linearGradient>
  <linearGradient id="g2" x1="301" gradientUnits="userSpaceOnUse" x2="931" gradientTransform="matrix(.8 0 0 .8 -61 -58)" y1="606" y2="606">
   <stop stop-color="#b30" offset="0"/>
   <stop stop-color="#b30" stop-opacity="0" offset="1"/>
  </linearGradient>
 </defs>
 <rect stroke-opacity="0" height="750" width="750" y=".000005" x=".000005" fill="url(#g1)"/>
 <path opacity=".2" fill-rule="evenodd" fill="url(#g2)" d="m516.23 187.11-139.87 5.2389-44.877 20.957-26.928 42.661 15.706 44.907 203.45 153.43-75.545 122-168.47-41.135-79.435-45.678 1.6423 22.836 1.6491 8.333 4.0164 10.164 5.7869 12.021 10.7 14.944 192.99 190.07c3.2782 0.73051 6.5151 1.4375 9.7409 2.138h323.22v-320.82c-0.98257-3.3013-1.9564-6.5986-2.9187-9.8876l-230.86-232.19z"/>
 <path fill="#fff" stroke-opacity="0" d="m414.14 151.19c16.959 0 33.511 2.4692 49.655 7.4069 16.307 4.9376 30.822 11.945 43.541 21.024 12.72 9.0789 22.911 19.911 30.575 32.494 7.8274 12.583 11.741 26.518 11.741 41.809 0 9.0789-1.6312 18.397-4.8927 27.954-3.0983 9.5568-8.1523 19.513-15.164 29.866-6.849 10.035-14.352 17.519-22.505 22.457-7.9905 4.7784-15.246 7.1684-21.769 7.1684-4.8922 0-8.887-1.3535-11.985-4.0613-3.0984-2.867-4.6484-7.0881-4.6484-12.663 0-4.1412 0.97789-8.9984 2.9348-14.573 1.9569-5.7341 5.3005-12.266 10.03-19.593 4.4029-7.0083 7.6633-13.538 9.7832-19.591 2.1199-6.2119 3.1811-11.947 3.1811-17.203 0-8.1233-2.2825-15.21-6.8485-21.262-4.4029-6.2119-10.601-11.39-18.592-15.531-7.8275-4.1413-17.284-7.2466-28.373-9.3172s-23.238-3.1051-36.447-3.1051c-14.676 0-27.479 1.6726-38.405 5.0174-10.763 3.1856-19.814 7.4066-27.152 12.663-7.1752 5.097-12.556 10.83-16.143 17.201-3.4245 6.3712-5.1369 12.663-5.1369 18.875 0 10.512 3.0981 19.91 9.2948 28.192 6.3598 8.2825 14.676 16.007 24.95 23.175 10.437 7.0083 22.178 13.699 35.224 20.07 13.209 6.3712 26.662 12.98 40.36 19.829 13.861 6.6897 27.315 13.939 40.36 21.744 13.209 7.6454 24.95 16.325 35.223 26.041 10.437 9.716 18.753 20.707 24.95 32.971 6.3598 12.265 9.5412 26.281 9.5412 42.05 0 14.335-2.3657 27.555-7.0948 39.66-4.7291 11.946-11.252 22.697-19.569 32.253-8.1536 9.5568-17.856 17.999-29.108 25.326-11.252 7.3268-23.401 13.379-36.447 18.157-13.046 4.7784-26.743 8.3633-41.093 10.753-14.35 2.5485-28.784 3.8227-43.297 3.8227-20.384 0-40.196-2.4692-59.438-7.4069-19.242-4.7784-36.366-12.105-51.369-21.98-15.003-9.716-27.068-21.902-36.2-36.555-8.9689-14.813-13.455-32.095-13.455-51.846 0-10.194 1.6312-19.114 4.8927-26.759 3.4245-7.8047 7.5838-14.255 12.476-19.352 5.0552-5.2562 10.517-9.1582 16.388-11.707 5.8706-2.7078 11.334-4.0612 16.39-4.0612 5.2183 0 9.5398 1.4328 12.964 4.2998 3.5876 2.7078 5.3811 7.008 5.3811 12.901 0 2.7078-0.32664 5.5753-0.97893 8.6016-0.65231 3.0263-1.3868 6.3714-2.2021 10.035-0.65227 3.5041-1.3035 7.4061-1.9558 11.707-0.65226 4.3006-0.97894 8.9992-0.97894 14.096 0 11.15 2.6092 20.787 7.8274 28.91 5.2183 8.1232 12.149 14.813 20.792 20.07 8.6428 5.2562 18.59 9.1582 29.842 11.707 11.252 2.5484 22.912 3.8227 34.979 3.8227 14.187 0 28.373-1.6726 42.56-5.0174 14.187-3.3449 26.908-8.2833 38.16-14.814 11.252-6.5305 20.384-14.493 27.396-23.89 7.0121-9.5568 10.518-20.468 10.518-32.733 0-11.309-3.1813-21.423-9.5411-30.343-6.1967-8.9196-14.513-17.122-24.95-24.608-10.274-7.6454-22.015-14.813-35.223-21.503-13.209-6.6897-26.662-13.459-40.36-20.308s-27.152-14.017-40.36-21.503c-13.209-7.6454-25.031-16.008-35.468-25.087-10.274-9.0789-18.59-19.192-24.95-30.341-6.1967-11.309-9.2948-24.132-9.2948-38.468 0-13.379 3.2604-26.52 9.7832-39.422 6.686-13.061 16.634-24.688 29.842-34.881 13.372-10.353 30.007-18.716 49.902-25.087 19.895-6.3712 43.213-9.5558 69.956-9.5558z"/>
 <path fill-opacity=".2" stroke-opacity="0" d="m404.35 204.47c-14.676 0-27.48 1.6731-38.405 5.018-10.763 3.1856-19.812 7.4068-27.15 12.663-7.1752 5.097-12.557 10.829-16.145 17.2-3.4245 6.3712-5.136 12.663-5.136 18.875 0 1.3245 0.05 2.6312 0.14838 3.9203 0.4601-5.24 2.1108-10.536 4.9876-15.889 3.5876-6.3712 8.9697-12.103 16.145-17.2 7.3382-5.2562 16.388-9.4774 27.15-12.663 10.926-3.3448 23.729-5.018 38.405-5.018 13.209 0 25.357 1.0352 36.446 3.1059 11.089 2.0706 20.545 5.1747 28.373 9.316 7.9905 4.1412 14.189 9.3209 18.592 15.533 3.8975 5.1664 6.1252 11.089 6.6957 17.764 0.0951-1.1559 0.15344-2.2947 0.15344-3.4077 0-8.1233-2.2831-15.21-6.8491-21.262-4.4029-6.2119-10.601-11.392-18.592-15.533-7.8274-4.1413-17.284-7.2454-28.373-9.316-11.089-2.0707-23.237-3.1059-36.446-3.1059zm145.22 52.879c-0.35756 7.9937-1.9646 16.169-4.8173 24.528-3.0984 9.5568-8.1515 19.514-15.164 29.867-6.849 10.035-14.351 17.52-22.505 22.458-7.9905 4.7784-15.247 7.1678-21.77 7.1678-4.8922 0-8.8868-1.3542-11.985-4.062-2.441-2.2588-3.9047-5.3714-4.4228-9.3109-0.14568 1.2368-0.22426 2.4243-0.22426 3.5544 0 5.5748 1.5487 9.796 4.647 12.663 3.0984 2.7077 7.093 4.0619 11.985 4.0619 6.5229 0 13.779-2.3894 21.77-7.1678 8.1536-4.9377 15.656-12.423 22.505-22.458 7.0121-10.353 12.065-20.31 15.164-29.867 3.2614-9.5568 4.8932-18.874 4.8932-27.953 0-1.1694-0.0301-2.3283-0.0759-3.4819zm-294.85 6.3838c-0.0445 1.1019-0.0742 2.2047-0.0742 3.3099 0 14.335 3.0973 27.159 9.2941 38.468 6.3598 11.15 14.676 21.262 24.95 30.341 10.437 9.0789 22.259 17.443 35.468 25.088 13.209 7.4861 26.662 14.653 40.36 21.502s27.151 13.62 40.36 20.31c13.209 6.6897 24.95 13.856 35.224 21.502 10.437 7.4861 18.753 15.69 24.95 24.609 5.7121 8.0113 8.8521 16.989 9.434 26.928 0.0647-1.1529 0.10791-2.3141 0.10791-3.492 0-11.309-3.1822-21.423-9.5419-30.342-6.1967-8.9196-14.513-17.123-24.95-24.609-10.274-7.6454-22.015-14.812-35.224-21.502-13.209-6.6897-26.662-13.461-40.36-20.31s-27.151-14.016-40.36-21.502c-13.209-7.6454-25.032-16.009-35.468-25.088-10.274-9.0789-18.59-19.191-24.95-30.341-5.6733-10.354-8.7407-21.981-9.2199-34.871zm13.911 179.74c-0.16086 1.595-0.41203 3.2339-0.77731 4.9286-0.65232 3.0263-1.3868 6.3725-2.2021 10.036-0.65226 3.5041-1.3036 7.4047-1.9559 11.705-0.65226 4.3006-0.97796 8.9993-0.97796 14.096 0 1.0032 0.0286 1.9906 0.0708 2.9693 0.12662-3.6014 0.42651-6.9901 0.90715-10.159 0.65231-4.3005 1.3037-8.2011 1.9559-11.705 0.81536-3.6634 1.5498-7.0097 2.2021-10.036 0.65228-3.0263 0.97965-5.8933 0.97965-8.6011 0-1.1376-0.0687-2.2152-0.20234-3.234zm268.73 32.349c-0.35864 12.982-2.7031 25.028-7.0414 36.133-4.7291 11.946-11.251 22.698-19.568 32.254-8.1536 9.5568-17.856 17.997-29.108 25.324-11.252 7.3268-23.4 13.38-36.446 18.158-13.046 4.7784-26.743 8.3634-41.093 10.753-14.35 2.5485-28.784 3.8225-43.297 3.8225-20.384 0-40.196-2.4696-59.439-7.4073-19.242-4.7784-36.366-12.104-51.369-21.979-15.003-9.7161-27.07-21.902-36.202-36.556-8.377-13.835-12.84-29.826-13.393-47.969-0.0331 1.0001-0.0607 2.0041-0.0607 3.03 0 19.751 4.4849 37.033 13.454 51.846 9.132 14.654 21.199 26.84 36.202 36.556 15.003 9.8753 32.126 17.201 51.369 21.979 19.242 4.9376 39.055 7.4073 59.439 7.4073 14.513 0 28.947-1.274 43.297-3.8225 14.35-2.3892 28.047-5.9742 41.093-10.753 13.046-4.7784 25.194-10.831 36.446-18.158 11.252-7.3269 20.954-15.768 29.108-25.324 8.3166-9.5568 14.839-20.308 19.568-32.254 4.7291-12.105 7.0953-25.325 7.0953-39.66 0-1.1365-0.0209-2.2608-0.054-3.379z"/>
</svg>
