<svg xmlns="http://www.w3.org/2000/svg" viewBox="0 0 1250 1250">
 <path fill="#fc0" d="m1057.8 773.13v-476.86h-149.35l0.31628-69.686 0.3163-69.686 20.197-0.81728c118.92-16.77 148.92-42.01 184.32-136.99l7.1129-19.062h129.25v1250h-192.18z"/>
 <path fill="#fe0" d="m867.61 1223.4-0.004-26.769 12.75-10.668c63.077-52.776 86.952-142.53 86.384-284.1-0.60846-151.77-57.631-264.08-93.045-289.53l-6.9491-4.995-0.37479-29.484s-0.0486-86.119-0.0264-155.04l0.0404-125.31h-44.48c-24.464 0-57.662 0.49356-73.918-0.2644l-29.713-1.3854v-69.799l-0.004-69.799 11.326-0.0134c66.133-0.0782 122.5-23.273 153.75-63.033 3.8074-4.845 7.1484-9.3564 7.5704-9.7001 5.242-4.2703 23.139-39.96 33.065-66.313l6.4737-17.187h129.36l-0.3186 55.878-0.3186 55.878-7.9243 6.5294c-26.986 22.236-69.896 35.743-119.99 37.77l-20.197 0.81728-0.3163 69.686-0.31628 69.686h149.35v953.72h-192.18z"/>
 <path d="m501.43 0.0019531c-21.72-0.0096474-35.93 0.019531-35.93 0.019531s0.44 11.684 1.8 20.622c5.11 33.354 23.21 149.25 26.36 168.75 1 6.19 3.18 19.97 4.84 30.62 1.66 10.66 4.43 28.38 6.15 39.38s4.5 28.72 6.17 39.37c1.67 10.66 4.66 29.78 6.65 42.5 2 12.72 5.86 37.47 8.59 55s5.78 36.94 6.78 43.12c0.99 6.19 3.17 19.97 4.83 30.63 1.66 10.65 4.43 28.37 6.15 39.37s4.5 28.72 6.16 39.38c1.67 10.65 5.2 33.15 7.85 50 2.65 16.84 6.87 43.7 9.38 59.68l4.57 29.06h47.48c110.79 0 138.93 18.58 152.45 100.64 2.66 16.15 3.97 164.75 1.65 187.87-7.32 72.99-35.72 96.49-116.75 96.49h-24.34l0.65 5.3c0.62 5 8.59 56.1 21.31 136.4h0.01l7.17 35.8 27.4-0.4c171.24-4.4 264.44-92.5 276.67-261.48 1.63-22.55 1.63-149.47 0-173.12-7.77-112.53-47.84-184.49-123.77-222.24-19.44-9.66-18.83-8.93-10.6-12.85 6.79-3.25 20.09-11.59 29.49-18.55l5.77-4.28 0.01-129.78v-129.79h-109.87l-0.63 52.19c-0.99 82.73-7.7 108.66-34.62 133.85-22.08 20.66-37.5 24.32-104.89 24.91l-52.33 0.47v-330.32l59.06 0.46c66.65 0.52 67.44 0.62 86.3 10.97l8.87 4.87v-38.64l11.33-0.02c66.44-0.08 122.87-23.34 154.18-63.545l7.15-9.185-4.46-5.19c-35.56-41.359-89.11-65.533-166.97-75.387-20.05-2.5363-152.9-2.9121-218.07-2.941zm-126.43 547.27l0.04 525.23h68.21l-68.25-525.23z" fill="#27b"/>
 <path fill="#239" d="m465.08 1247.2c-1.5961-1.8395-5.1947-34.264-22.091-150.31-1.6016-11-4.598-31.457-6.6586-45.461-2.0607-14.004-3.7467-25.957-3.7467-26.562 0-0.6266-50.549-1.1007-117.35-1.1007h-117.35l-2.1522 14.687c-1.1837 8.0779-2.8406 18.906-3.6819 24.062-1.2365 7.5783-1.5582-93.323-1.6789-526.55l-0.14922-535.93h137.62c130 0 137.67 0.004947 137.67 0.004947s2.3818 11.682 3.7496 20.62c5.1048 33.355 23.207 149.25 26.358 168.75 0.99983 6.1874 3.1761 19.968 4.8361 30.624s4.4279 28.374 6.1509 39.374 4.498 28.718 6.1667 39.374 4.6651 29.781 6.6587 42.499 5.8568 37.468 8.585 54.999c2.7281 17.531 5.777 36.937 6.7752 43.124 0.99823 6.1874 3.1732 19.968 4.8332 30.624s4.4279 28.374 6.1509 39.374 4.4967 28.718 6.1638 39.374 5.1979 33.156 7.8462 49.999 6.7879 43.562 9.199 59.374c5.645 37.02 64.311 411.94 65.621 419.37 0.54563 3.0938 4.3375 27 8.4264 53.124s9.9113 63.091 12.939 82.148c3.0273 19.057 5.4519 37.23 5.4519 37.23s-31.5-0.01-97.848-0.01h-96.06zm-57.79-396.26c-0.56-3.36-14.63-99.97-24.89-170.94-18.12-125.3-28.16-194.37-45.89-315.61-10.45-71.5-19.35-132.47-19.77-135.48-1.0586-7.5424-2.1638-4.6842-4.5364 11.733-1.9392 13.418-24.311 166.23-55.265 377.49-8.4614 57.749-19.492 133.12-24.513 167.5-5.0206 34.374-9.4203 63.764-9.777 65.311l-0.64857 2.8124h185.76z"/>
 <path d="m0 625.01v-624.99h192.17l0.30742 535.93 0.30744 535.93 124.43 0.3183 124.43 0.3184 0.84129 6.5565c1.0585 8.249 23.599 162.83 24.423 167.49l0.60778 3.4374h-467.52v-624.99z" fill="#226"/>
</svg>
