<svg version="1.1" id="csvg" xmlns="http://www.w3.org/2000/svg" viewBox="0 0 800 750" fill="#333">
<g transform="matrix(1.528,0,0,1.528,-212,-235)">
	<path d="M542.083,157.5H258.012L140.226,341.107L187.571,642.5h84.298l-5.774-69.286h41.571l5.774,69.286H487.81l5.774-69.286
		h41.571l-5.774,69.286h84.298l47.345-301.393L542.083,157.5z M542.083,538.571H258.012l-23.095-191.69l47.345-97h76.214
		l-4.619,34.643h94.69l-4.619-34.643h76.214l47.345,97L542.083,538.571z"/>
	<path d="M476.262,381.524c6.929,0,11.548,19.631,11.548,43.881c0,24.25-5.774,43.881-11.548,43.881
		c-6.929,0-11.548-19.631-11.548-43.881C464.714,401.155,470.488,381.524,476.262,381.524z"/>
	<path d="M327.298,384.988c6.929,0,11.548,19.631,11.548,43.881s-5.774,43.881-11.548,43.881c-6.929,0-11.548-19.631-11.548-43.881
		S321.524,384.988,327.298,384.988z"/>
</g>
</svg>
